<?xml version="1.0" encoding="UTF-8" standalone="no"?>
<!DOCTYPE svg PUBLIC "-//W3C//DTD SVG 1.1//EN"
 "http://www.w3.org/Graphics/SVG/1.1/DTD/svg11.dtd">
<!-- Generated by graphviz version 2.43.0 (0)
 -->
<!-- Title: CVIMUFusion Pages: 1 -->
<svg width="817pt" height="1832pt"
 viewBox="0.00 0.00 816.50 1832.00" xmlns="http://www.w3.org/2000/svg" xmlns:xlink="http://www.w3.org/1999/xlink">
<g id="graph0" class="graph" transform="scale(1 1) rotate(0) translate(36 1796)">
<title>CVIMUFusion</title>
<polygon fill="#0b0f14" stroke="transparent" points="-36,36 -36,-1796 780.5,-1796 780.5,36 -36,36"/>
<text text-anchor="middle" x="372.25" y="-1743.2" font-family="Inter, Helvetica, Arial, sans-serif" font-size="16.00" fill="#e6edf3">CV + IMU Sensor Fusion Pipeline</text>
<!-- camera -->
<g id="node1" class="node">
<title>camera</title>
<polygon fill="#1a1e28" stroke="#42a5f5" stroke-width="1.5" points="703,-1734 533,-1734 529,-1730 529,-1690 699,-1690 703,-1694 703,-1734"/>
<polyline fill="none" stroke="#42a5f5" stroke-width="1.5" points="699,-1730 529,-1730 "/>
<polyline fill="none" stroke="#42a5f5" stroke-width="1.5" points="699,-1730 699,-1690 "/>
<polyline fill="none" stroke="#42a5f5" stroke-width="1.5" points="699,-1730 703,-1734 "/>
<text text-anchor="middle" x="616" y="-1721.2" font-family="Inter, Helvetica, Arial, sans-serif" font-size="11.00" fill="#e6edf3">RealSense D435i</text>
<text text-anchor="middle" x="616" y="-1709.2" font-family="Inter, Helvetica, Arial, sans-serif" font-size="11.00" fill="#e6edf3">(RGB 960x540 + Depth 640x480</text>
<text text-anchor="middle" x="616" y="-1697.2" font-family="Inter, Helvetica, Arial, sans-serif" font-size="11.00" fill="#e6edf3">@30fps)</text>
</g>
<!-- rgb_frame -->
<g id="node4" class="node">
<title>rgb_frame</title>
<path fill="#1e2832" stroke="#ff6b35" stroke-width="1.5" d="M585,-1623C585,-1623 535,-1623 535,-1623 529,-1623 523,-1617 523,-1611 523,-1611 523,-1599 523,-1599 523,-1593 529,-1587 535,-1587 535,-1587 585,-1587 585,-1587 591,-1587 597,-1593 597,-1599 597,-1599 597,-1611 597,-1611 597,-1617 591,-1623 585,-1623"/>
<text text-anchor="middle" x="560" y="-1608.2" font-family="Inter, Helvetica, Arial, sans-serif" font-size="11.00" fill="#e6edf3">RGB Frame</text>
<text text-anchor="middle" x="560" y="-1596.2" font-family="Inter, Helvetica, Arial, sans-serif" font-size="11.00" fill="#e6edf3">(960x540)</text>
</g>
<!-- camera&#45;&gt;rgb_frame -->
<g id="edge1" class="edge">
<title>camera&#45;&gt;rgb_frame</title>
<path fill="none" stroke="#42a5f5" d="M604.67,-1689.75C595.33,-1672.25 582.11,-1647.45 572.47,-1629.39"/>
<polygon fill="#42a5f5" stroke="#42a5f5" points="574.55,-1628.08 569.1,-1623.06 570.23,-1630.39 574.55,-1628.08"/>
</g>
<!-- depth_frame -->
<g id="node5" class="node">
<title>depth_frame</title>
<path fill="#1e2832" stroke="#ff6b35" stroke-width="1.5" d="M702,-1623C702,-1623 646,-1623 646,-1623 640,-1623 634,-1617 634,-1611 634,-1611 634,-1599 634,-1599 634,-1593 640,-1587 646,-1587 646,-1587 702,-1587 702,-1587 708,-1587 714,-1593 714,-1599 714,-1599 714,-1611 714,-1611 714,-1617 708,-1623 702,-1623"/>
<text text-anchor="middle" x="674" y="-1608.2" font-family="Inter, Helvetica, Arial, sans-serif" font-size="11.00" fill="#e6edf3">Depth Frame</text>
<text text-anchor="middle" x="674" y="-1596.2" font-family="Inter, Helvetica, Arial, sans-serif" font-size="11.00" fill="#e6edf3">(640x480)</text>
</g>
<!-- camera&#45;&gt;depth_frame -->
<g id="edge2" class="edge">
<title>camera&#45;&gt;depth_frame</title>
<path fill="none" stroke="#42a5f5" d="M627.74,-1689.75C637.41,-1672.25 651.1,-1647.45 661.08,-1629.39"/>
<polygon fill="#42a5f5" stroke="#42a5f5" points="663.34,-1630.37 664.58,-1623.06 659.05,-1628 663.34,-1630.37"/>
</g>
<!-- imu_pads -->
<g id="node2" class="node">
<title>imu_pads</title>
<polygon fill="#1a1e28" stroke="#42a5f5" stroke-width="1.5" points="418.5,-1354 273.5,-1354 269.5,-1350 269.5,-1310 414.5,-1310 418.5,-1314 418.5,-1354"/>
<polyline fill="none" stroke="#42a5f5" stroke-width="1.5" points="414.5,-1350 269.5,-1350 "/>
<polyline fill="none" stroke="#42a5f5" stroke-width="1.5" points="414.5,-1350 414.5,-1310 "/>
<polyline fill="none" stroke="#42a5f5" stroke-width="1.5" points="414.5,-1350 418.5,-1354 "/>
<text text-anchor="middle" x="344" y="-1341.2" font-family="Inter, Helvetica, Arial, sans-serif" font-size="11.00" fill="#e6edf3">Teensy 4.1 IMU Pads</text>
<text text-anchor="middle" x="344" y="-1329.2" font-family="Inter, Helvetica, Arial, sans-serif" font-size="11.00" fill="#e6edf3">(4 accelerometers @100Hz</text>
<text text-anchor="middle" x="344" y="-1317.2" font-family="Inter, Helvetica, Arial, sans-serif" font-size="11.00" fill="#e6edf3">centre, left, right, head)</text>
</g>
<!-- imu_raw -->
<g id="node13" class="node">
<title>imu_raw</title>
<path fill="#1e2832" stroke="#26a69a" stroke-width="1.5" d="M387.5,-1243C387.5,-1243 300.5,-1243 300.5,-1243 294.5,-1243 288.5,-1237 288.5,-1231 288.5,-1231 288.5,-1211 288.5,-1211 288.5,-1205 294.5,-1199 300.5,-1199 300.5,-1199 387.5,-1199 387.5,-1199 393.5,-1199 399.5,-1205 399.5,-1211 399.5,-1211 399.5,-1231 399.5,-1231 399.5,-1237 393.5,-1243 387.5,-1243"/>
<text text-anchor="middle" x="344" y="-1230.2" font-family="Inter, Helvetica, Arial, sans-serif" font-size="11.00" fill="#e6edf3">Raw Accelerometer</text>
<text text-anchor="middle" x="344" y="-1218.2" font-family="Inter, Helvetica, Arial, sans-serif" font-size="11.00" fill="#e6edf3">(gravity&#45;calibrated)</text>
<text text-anchor="middle" x="344" y="-1206.2" font-family="Inter, Helvetica, Arial, sans-serif" font-size="11.00" fill="#e6edf3">threshold: 5.0 m/s2</text>
</g>
<!-- imu_pads&#45;&gt;imu_raw -->
<g id="edge11" class="edge">
<title>imu_pads&#45;&gt;imu_raw</title>
<path fill="none" stroke="#26a69a" d="M344,-1309.98C344,-1293.05 344,-1269.08 344,-1250.44"/>
<polygon fill="#26a69a" stroke="#26a69a" points="346.45,-1250.32 344,-1243.32 341.55,-1250.32 346.45,-1250.32"/>
</g>
<!-- arm_imu -->
<g id="node3" class="node">
<title>arm_imu</title>
<polygon fill="#1a1e28" stroke="#42a5f5" stroke-width="1.5" points="151.5,-775 52.5,-775 48.5,-771 48.5,-731 147.5,-731 151.5,-735 151.5,-775"/>
<polyline fill="none" stroke="#42a5f5" stroke-width="1.5" points="147.5,-771 48.5,-771 "/>
<polyline fill="none" stroke="#42a5f5" stroke-width="1.5" points="147.5,-771 147.5,-731 "/>
<polyline fill="none" stroke="#42a5f5" stroke-width="1.5" points="147.5,-771 151.5,-775 "/>
<text text-anchor="middle" x="100" y="-762.2" font-family="Inter, Helvetica, Arial, sans-serif" font-size="11.00" fill="#e6edf3">Robot Arm IMU</text>
<text text-anchor="middle" x="100" y="-750.2" font-family="Inter, Helvetica, Arial, sans-serif" font-size="11.00" fill="#e6edf3">(2 accelerometers</text>
<text text-anchor="middle" x="100" y="-738.2" font-family="Inter, Helvetica, Arial, sans-serif" font-size="11.00" fill="#e6edf3">contact detection)</text>
</g>
<!-- robot_punch -->
<g id="node25" class="node">
<title>robot_punch</title>
<path fill="#1e2832" stroke="#ff5252" stroke-width="1.5" d="M144,-641C144,-641 56,-641 56,-641 50,-641 44,-635 44,-629 44,-629 44,-617 44,-617 44,-611 50,-605 56,-605 56,-605 144,-605 144,-605 150,-605 156,-611 156,-617 156,-617 156,-629 156,-629 156,-635 150,-641 144,-641"/>
<text text-anchor="middle" x="100" y="-626" font-family="Inter, Helvetica, Arial, sans-serif" font-size="10.00" fill="#e6edf3">Robot Punch</text>
<text text-anchor="middle" x="100" y="-615" font-family="Inter, Helvetica, Arial, sans-serif" font-size="10.00" fill="#e6edf3">(arm_event from IMU)</text>
</g>
<!-- arm_imu&#45;&gt;robot_punch -->
<g id="edge27" class="edge">
<title>arm_imu&#45;&gt;robot_punch</title>
<path fill="none" stroke="#ff5252" d="M100,-730.86C100,-708.18 100,-672.21 100,-648.35"/>
<polygon fill="#ff5252" stroke="#ff5252" points="102.45,-648.07 100,-641.07 97.55,-648.07 102.45,-648.07"/>
</g>
<!-- yolo -->
<g id="node6" class="node">
<title>yolo</title>
<path fill="#1e2832" stroke="#ff6b35" stroke-width="1.5" d="M595.5,-1520C595.5,-1520 518.5,-1520 518.5,-1520 512.5,-1520 506.5,-1514 506.5,-1508 506.5,-1508 506.5,-1488 506.5,-1488 506.5,-1482 512.5,-1476 518.5,-1476 518.5,-1476 595.5,-1476 595.5,-1476 601.5,-1476 607.5,-1482 607.5,-1488 607.5,-1488 607.5,-1508 607.5,-1508 607.5,-1514 601.5,-1520 595.5,-1520"/>
<text text-anchor="middle" x="557" y="-1507.2" font-family="Inter, Helvetica, Arial, sans-serif" font-size="11.00" fill="#e6edf3">YOLO Pose</text>
<text text-anchor="middle" x="557" y="-1495.2" font-family="Inter, Helvetica, Arial, sans-serif" font-size="11.00" fill="#e6edf3">(TensorRT FP16)</text>
<text text-anchor="middle" x="557" y="-1483.2" font-family="Inter, Helvetica, Arial, sans-serif" font-size="11.00" fill="#e6edf3">~6ms inference</text>
</g>
<!-- rgb_frame&#45;&gt;yolo -->
<g id="edge3" class="edge">
<title>rgb_frame&#45;&gt;yolo</title>
<path fill="none" stroke="#ff6b35" d="M559.5,-1586.66C559.05,-1570.62 558.36,-1546.47 557.82,-1527.57"/>
<polygon fill="#ff6b35" stroke="#ff6b35" points="560.26,-1527.29 557.61,-1520.36 555.36,-1527.43 560.26,-1527.29"/>
</g>
<!-- voxel -->
<g id="node7" class="node">
<title>voxel</title>
<path fill="#1e2832" stroke="#ff6b35" stroke-width="1.5" d="M732.5,-1443C732.5,-1443 615.5,-1443 615.5,-1443 609.5,-1443 603.5,-1437 603.5,-1431 603.5,-1431 603.5,-1399 603.5,-1399 603.5,-1393 609.5,-1387 615.5,-1387 615.5,-1387 732.5,-1387 732.5,-1387 738.5,-1387 744.5,-1393 744.5,-1399 744.5,-1399 744.5,-1431 744.5,-1431 744.5,-1437 738.5,-1443 732.5,-1443"/>
<text text-anchor="middle" x="674" y="-1430.2" font-family="Inter, Helvetica, Arial, sans-serif" font-size="11.00" fill="#e6edf3">Voxel Occupancy Grid</text>
<text text-anchor="middle" x="674" y="-1418.2" font-family="Inter, Helvetica, Arial, sans-serif" font-size="11.00" fill="#e6edf3">(12x12x12, 2 channels)</text>
<text text-anchor="middle" x="674" y="-1406.2" font-family="Inter, Helvetica, Arial, sans-serif" font-size="11.00" fill="#e6edf3">Delta @2 frames (67ms)</text>
<text text-anchor="middle" x="674" y="-1394.2" font-family="Inter, Helvetica, Arial, sans-serif" font-size="11.00" fill="#e6edf3">Delta @8 frames (267ms)</text>
</g>
<!-- depth_frame&#45;&gt;voxel -->
<g id="edge4" class="edge">
<title>depth_frame&#45;&gt;voxel</title>
<path fill="none" stroke="#ff6b35" d="M674,-1586.98C674,-1556.18 674,-1490.63 674,-1450.24"/>
<polygon fill="#ff6b35" stroke="#ff6b35" points="676.45,-1450 674,-1443 671.55,-1450 676.45,-1450"/>
</g>
<!-- pose_feat -->
<g id="node8" class="node">
<title>pose_feat</title>
<path fill="#1e2832" stroke="#ff6b35" stroke-width="1.5" d="M607.5,-1354C607.5,-1354 478.5,-1354 478.5,-1354 472.5,-1354 466.5,-1348 466.5,-1342 466.5,-1342 466.5,-1322 466.5,-1322 466.5,-1316 472.5,-1310 478.5,-1310 478.5,-1310 607.5,-1310 607.5,-1310 613.5,-1310 619.5,-1316 619.5,-1322 619.5,-1322 619.5,-1342 619.5,-1342 619.5,-1348 613.5,-1354 607.5,-1354"/>
<text text-anchor="middle" x="543" y="-1341.2" font-family="Inter, Helvetica, Arial, sans-serif" font-size="11.00" fill="#e6edf3">Pose Features (42 dims)</text>
<text text-anchor="middle" x="543" y="-1329.2" font-family="Inter, Helvetica, Arial, sans-serif" font-size="11.00" fill="#e6edf3">Joint coords, velocities,</text>
<text text-anchor="middle" x="543" y="-1317.2" font-family="Inter, Helvetica, Arial, sans-serif" font-size="11.00" fill="#e6edf3">elbow angles, arm extension</text>
</g>
<!-- yolo&#45;&gt;pose_feat -->
<g id="edge5" class="edge">
<title>yolo&#45;&gt;pose_feat</title>
<path fill="none" stroke="#ff6b35" d="M555.2,-1475.9C552.7,-1446.62 548.17,-1393.62 545.39,-1361.04"/>
<polygon fill="#ff6b35" stroke="#ff6b35" points="547.83,-1360.79 544.79,-1354.02 542.95,-1361.21 547.83,-1360.79"/>
</g>
<!-- temporal -->
<g id="node9" class="node">
<title>temporal</title>
<path fill="#1e2832" stroke="#ff6b35" stroke-width="1.5" d="M633,-1243C633,-1243 499,-1243 499,-1243 493,-1243 487,-1237 487,-1231 487,-1231 487,-1211 487,-1211 487,-1205 493,-1199 499,-1199 499,-1199 633,-1199 633,-1199 639,-1199 645,-1205 645,-1211 645,-1211 645,-1231 645,-1231 645,-1237 639,-1243 633,-1243"/>
<text text-anchor="middle" x="566" y="-1230.2" font-family="Inter, Helvetica, Arial, sans-serif" font-size="11.00" fill="#e6edf3">Temporal Window</text>
<text text-anchor="middle" x="566" y="-1218.2" font-family="Inter, Helvetica, Arial, sans-serif" font-size="11.00" fill="#e6edf3">(12 frames = 400ms @30fps)</text>
<text text-anchor="middle" x="566" y="-1206.2" font-family="Inter, Helvetica, Arial, sans-serif" font-size="11.00" fill="#e6edf3">Rolling Feature Buffer</text>
</g>
<!-- voxel&#45;&gt;temporal -->
<g id="edge6" class="edge">
<title>voxel&#45;&gt;temporal</title>
<path fill="none" stroke="#ff6b35" d="M667.07,-1386.86C660.92,-1365.22 650.76,-1334.58 637,-1310 624.51,-1287.69 606.34,-1265.29 591.52,-1248.68"/>
<polygon fill="#ff6b35" stroke="#ff6b35" points="593.14,-1246.83 586.63,-1243.28 589.51,-1250.11 593.14,-1246.83"/>
</g>
<!-- pose_feat&#45;&gt;temporal -->
<g id="edge7" class="edge">
<title>pose_feat&#45;&gt;temporal</title>
<path fill="none" stroke="#ff6b35" d="M547.43,-1309.98C551.01,-1293.05 556.06,-1269.08 560,-1250.44"/>
<polygon fill="#ff6b35" stroke="#ff6b35" points="562.45,-1250.68 561.5,-1243.32 557.66,-1249.67 562.45,-1250.68"/>
</g>
<!-- transformer -->
<g id="node10" class="node">
<title>transformer</title>
<path fill="#1e2832" stroke="#ff6b35" stroke-width="1.5" d="M606,-1132C606,-1132 526,-1132 526,-1132 520,-1132 514,-1126 514,-1120 514,-1120 514,-1088 514,-1088 514,-1082 520,-1076 526,-1076 526,-1076 606,-1076 606,-1076 612,-1076 618,-1082 618,-1088 618,-1088 618,-1120 618,-1120 618,-1126 612,-1132 606,-1132"/>
<text text-anchor="middle" x="566" y="-1119.2" font-family="Inter, Helvetica, Arial, sans-serif" font-size="11.00" fill="#e6edf3">FusionVoxelPose</text>
<text text-anchor="middle" x="566" y="-1107.2" font-family="Inter, Helvetica, Arial, sans-serif" font-size="11.00" fill="#e6edf3">TransformerModel</text>
<text text-anchor="middle" x="566" y="-1095.2" font-family="Inter, Helvetica, Arial, sans-serif" font-size="11.00" fill="#e6edf3">(TensorRT FP16)</text>
<text text-anchor="middle" x="566" y="-1083.2" font-family="Inter, Helvetica, Arial, sans-serif" font-size="11.00" fill="#e6edf3">~8ms inference</text>
</g>
<!-- temporal&#45;&gt;transformer -->
<g id="edge8" class="edge">
<title>temporal&#45;&gt;transformer</title>
<path fill="none" stroke="#ff6b35" d="M566,-1198.91C566,-1182.23 566,-1158.62 566,-1139.24"/>
<polygon fill="#ff6b35" stroke="#ff6b35" points="568.45,-1139.05 566,-1132.05 563.55,-1139.05 568.45,-1139.05"/>
</g>
<!-- smoothing -->
<g id="node11" class="node">
<title>smoothing</title>
<path fill="#1e2832" stroke="#ff6b35" stroke-width="1.5" d="M632,-1009C632,-1009 500,-1009 500,-1009 494,-1009 488,-1003 488,-997 488,-997 488,-965 488,-965 488,-959 494,-953 500,-953 500,-953 632,-953 632,-953 638,-953 644,-959 644,-965 644,-965 644,-997 644,-997 644,-1003 638,-1009 632,-1009"/>
<text text-anchor="middle" x="566" y="-996.2" font-family="Inter, Helvetica, Arial, sans-serif" font-size="11.00" fill="#e6edf3">Post&#45;Processing</text>
<text text-anchor="middle" x="566" y="-984.2" font-family="Inter, Helvetica, Arial, sans-serif" font-size="11.00" fill="#e6edf3">EMA (a=0.35)</text>
<text text-anchor="middle" x="566" y="-972.2" font-family="Inter, Helvetica, Arial, sans-serif" font-size="11.00" fill="#e6edf3">Hysteresis (0.12)</text>
<text text-anchor="middle" x="566" y="-960.2" font-family="Inter, Helvetica, Arial, sans-serif" font-size="11.00" fill="#e6edf3">State Machine (3 frame hold)</text>
</g>
<!-- transformer&#45;&gt;smoothing -->
<g id="edge9" class="edge">
<title>transformer&#45;&gt;smoothing</title>
<path fill="none" stroke="#ff6b35" d="M566,-1075.85C566,-1058.25 566,-1035.19 566,-1016.33"/>
<polygon fill="#ff6b35" stroke="#ff6b35" points="568.45,-1016.06 566,-1009.06 563.55,-1016.06 568.45,-1016.06"/>
</g>
<!-- cv_detection -->
<g id="node12" class="node">
<title>cv_detection</title>
<path fill="#231810" stroke="#ffd54f" stroke-width="1.5" d="M622.5,-886C622.5,-886 509.5,-886 509.5,-886 503.5,-886 497.5,-880 497.5,-874 497.5,-874 497.5,-854 497.5,-854 497.5,-848 503.5,-842 509.5,-842 509.5,-842 622.5,-842 622.5,-842 628.5,-842 634.5,-848 634.5,-854 634.5,-854 634.5,-874 634.5,-874 634.5,-880 628.5,-886 622.5,-886"/>
<text text-anchor="middle" x="566" y="-873.2" font-family="Inter, Helvetica, Arial, sans-serif" font-size="11.00" fill="#e6edf3">CV Detection</text>
<text text-anchor="middle" x="566" y="-861.2" font-family="Inter, Helvetica, Arial, sans-serif" font-size="11.00" fill="#e6edf3">(punch_type, confidence,</text>
<text text-anchor="middle" x="566" y="-849.2" font-family="Inter, Helvetica, Arial, sans-serif" font-size="11.00" fill="#e6edf3">consecutive_frames)</text>
</g>
<!-- smoothing&#45;&gt;cv_detection -->
<g id="edge10" class="edge">
<title>smoothing&#45;&gt;cv_detection</title>
<path fill="none" stroke="#ffd54f" d="M566,-952.75C566,-934.96 566,-911.78 566,-893.71"/>
<polygon fill="#ffd54f" stroke="#ffd54f" points="568.45,-893.31 566,-886.31 563.55,-893.31 568.45,-893.31"/>
</g>
<!-- cv_buffer -->
<g id="node17" class="node">
<title>cv_buffer</title>
<path fill="#1e2832" stroke="#ffd54f" stroke-width="1.5" d="M608,-771C608,-771 524,-771 524,-771 518,-771 512,-765 512,-759 512,-759 512,-747 512,-747 512,-741 518,-735 524,-735 524,-735 608,-735 608,-735 614,-735 620,-741 620,-747 620,-747 620,-759 620,-759 620,-765 614,-771 608,-771"/>
<text text-anchor="middle" x="566" y="-756.2" font-family="Inter, Helvetica, Arial, sans-serif" font-size="11.00" fill="#e6edf3">CV Ring Buffer</text>
<text text-anchor="middle" x="566" y="-744.2" font-family="Inter, Helvetica, Arial, sans-serif" font-size="11.00" fill="#e6edf3">(max 50, 2s expiry)</text>
</g>
<!-- cv_detection&#45;&gt;cv_buffer -->
<g id="edge15" class="edge">
<title>cv_detection&#45;&gt;cv_buffer</title>
<path fill="none" stroke="#ffd54f" d="M566,-841.98C566,-823.74 566,-797.33 566,-778.21"/>
<polygon fill="#ffd54f" stroke="#ffd54f" points="568.45,-778.02 566,-771.02 563.55,-778.02 568.45,-778.02"/>
</g>
<!-- imu_debounce -->
<g id="node14" class="node">
<title>imu_debounce</title>
<path fill="#1e2832" stroke="#26a69a" stroke-width="1.5" d="M385.5,-1122C385.5,-1122 302.5,-1122 302.5,-1122 296.5,-1122 290.5,-1116 290.5,-1110 290.5,-1110 290.5,-1098 290.5,-1098 290.5,-1092 296.5,-1086 302.5,-1086 302.5,-1086 385.5,-1086 385.5,-1086 391.5,-1086 397.5,-1092 397.5,-1098 397.5,-1098 397.5,-1110 397.5,-1110 397.5,-1116 391.5,-1122 385.5,-1122"/>
<text text-anchor="middle" x="344" y="-1107.2" font-family="Inter, Helvetica, Arial, sans-serif" font-size="11.00" fill="#e6edf3">Per&#45;Pad Debounce</text>
<text text-anchor="middle" x="344" y="-1095.2" font-family="Inter, Helvetica, Arial, sans-serif" font-size="11.00" fill="#e6edf3">(150ms cooldown)</text>
</g>
<!-- imu_raw&#45;&gt;imu_debounce -->
<g id="edge12" class="edge">
<title>imu_raw&#45;&gt;imu_debounce</title>
<path fill="none" stroke="#26a69a" d="M344,-1198.91C344,-1179.27 344,-1150.01 344,-1129.39"/>
<polygon fill="#26a69a" stroke="#26a69a" points="346.45,-1129.21 344,-1122.21 341.55,-1129.21 346.45,-1129.21"/>
</g>
<!-- pad_map -->
<g id="node15" class="node">
<title>pad_map</title>
<path fill="#1e2832" stroke="#26a69a" stroke-width="1.5" d="M381.5,-1003C381.5,-1003 306.5,-1003 306.5,-1003 300.5,-1003 294.5,-997 294.5,-991 294.5,-991 294.5,-971 294.5,-971 294.5,-965 300.5,-959 306.5,-959 306.5,-959 381.5,-959 381.5,-959 387.5,-959 393.5,-965 393.5,-971 393.5,-971 393.5,-991 393.5,-991 393.5,-997 387.5,-1003 381.5,-1003"/>
<text text-anchor="middle" x="344" y="-990.2" font-family="Inter, Helvetica, Arial, sans-serif" font-size="11.00" fill="#e6edf3">Pad Mapping</text>
<text text-anchor="middle" x="344" y="-978.2" font-family="Inter, Helvetica, Arial, sans-serif" font-size="11.00" fill="#e6edf3">0=centre, 1=right</text>
<text text-anchor="middle" x="344" y="-966.2" font-family="Inter, Helvetica, Arial, sans-serif" font-size="11.00" fill="#e6edf3">2=left, 3=head</text>
</g>
<!-- imu_debounce&#45;&gt;pad_map -->
<g id="edge13" class="edge">
<title>imu_debounce&#45;&gt;pad_map</title>
<path fill="none" stroke="#26a69a" d="M344,-1085.92C344,-1066.29 344,-1033.76 344,-1010.32"/>
<polygon fill="#26a69a" stroke="#26a69a" points="346.45,-1010.06 344,-1003.06 341.55,-1010.06 346.45,-1010.06"/>
</g>
<!-- imu_event -->
<g id="node16" class="node">
<title>imu_event</title>
<path fill="#231810" stroke="#ffd54f" stroke-width="1.5" d="M397,-886C397,-886 291,-886 291,-886 285,-886 279,-880 279,-874 279,-874 279,-854 279,-854 279,-848 285,-842 291,-842 291,-842 397,-842 397,-842 403,-842 409,-848 409,-854 409,-854 409,-874 409,-874 409,-880 403,-886 397,-886"/>
<text text-anchor="middle" x="344" y="-873.2" font-family="Inter, Helvetica, Arial, sans-serif" font-size="11.00" fill="#e6edf3">IMU Punch Event</text>
<text text-anchor="middle" x="344" y="-861.2" font-family="Inter, Helvetica, Arial, sans-serif" font-size="11.00" fill="#e6edf3">(pad, force_normalized,</text>
<text text-anchor="middle" x="344" y="-849.2" font-family="Inter, Helvetica, Arial, sans-serif" font-size="11.00" fill="#e6edf3">accel_magnitude)</text>
</g>
<!-- pad_map&#45;&gt;imu_event -->
<g id="edge14" class="edge">
<title>pad_map&#45;&gt;imu_event</title>
<path fill="none" stroke="#ffd54f" d="M344,-958.91C344,-940.54 344,-913.76 344,-893.49"/>
<polygon fill="#ffd54f" stroke="#ffd54f" points="346.45,-893.35 344,-886.35 341.55,-893.35 346.45,-893.35"/>
</g>
<!-- imu_buffer -->
<g id="node18" class="node">
<title>imu_buffer</title>
<path fill="#1e2832" stroke="#ffd54f" stroke-width="1.5" d="M386,-771C386,-771 302,-771 302,-771 296,-771 290,-765 290,-759 290,-759 290,-747 290,-747 290,-741 296,-735 302,-735 302,-735 386,-735 386,-735 392,-735 398,-741 398,-747 398,-747 398,-759 398,-759 398,-765 392,-771 386,-771"/>
<text text-anchor="middle" x="344" y="-756.2" font-family="Inter, Helvetica, Arial, sans-serif" font-size="11.00" fill="#e6edf3">IMU Ring Buffer</text>
<text text-anchor="middle" x="344" y="-744.2" font-family="Inter, Helvetica, Arial, sans-serif" font-size="11.00" fill="#e6edf3">(max 50, 2s expiry)</text>
</g>
<!-- imu_event&#45;&gt;imu_buffer -->
<g id="edge16" class="edge">
<title>imu_event&#45;&gt;imu_buffer</title>
<path fill="none" stroke="#ffd54f" d="M344,-841.98C344,-823.74 344,-797.33 344,-778.21"/>
<polygon fill="#ffd54f" stroke="#ffd54f" points="346.45,-778.02 344,-771.02 341.55,-778.02 346.45,-778.02"/>
</g>
<!-- matcher -->
<g id="node19" class="node">
<title>matcher</title>
<path fill="#1e2832" stroke="#ffd54f" stroke-width="1.5" d="M463.5,-645C463.5,-645 350.5,-645 350.5,-645 344.5,-645 338.5,-639 338.5,-633 338.5,-633 338.5,-613 338.5,-613 338.5,-607 344.5,-601 350.5,-601 350.5,-601 463.5,-601 463.5,-601 469.5,-601 475.5,-607 475.5,-613 475.5,-613 475.5,-633 475.5,-633 475.5,-639 469.5,-645 463.5,-645"/>
<text text-anchor="middle" x="407" y="-632.2" font-family="Inter, Helvetica, Arial, sans-serif" font-size="11.00" fill="#e6edf3">Temporal Matcher</text>
<text text-anchor="middle" x="407" y="-620.2" font-family="Inter, Helvetica, Arial, sans-serif" font-size="11.00" fill="#e6edf3">(500ms fusion window)</text>
<text text-anchor="middle" x="407" y="-608.2" font-family="Inter, Helvetica, Arial, sans-serif" font-size="11.00" fill="#e6edf3">Closest timestamp match</text>
</g>
<!-- cv_buffer&#45;&gt;matcher -->
<g id="edge17" class="edge">
<title>cv_buffer&#45;&gt;matcher</title>
<path fill="none" stroke="#ffd54f" d="M544.56,-734.74C517.35,-712.83 470.18,-674.86 438.78,-649.58"/>
<polygon fill="#ffd54f" stroke="#ffd54f" points="440.1,-647.5 433.11,-645.02 437.03,-651.32 440.1,-647.5"/>
</g>
<!-- cv_only -->
<g id="node23" class="node">
<title>cv_only</title>
<path fill="#131920" stroke="#78909c" stroke-width="1.5" d="M627,-568C627,-568 519,-568 519,-568 513,-568 507,-562 507,-556 507,-556 507,-539 507,-539 507,-533 513,-527 519,-527 519,-527 627,-527 627,-527 633,-527 639,-533 639,-539 639,-539 639,-556 639,-556 639,-562 633,-568 627,-568"/>
<text text-anchor="middle" x="573" y="-556" font-family="Inter, Helvetica, Arial, sans-serif" font-size="10.00" fill="#e6edf3">CV&#45;Only Path</text>
<text text-anchor="middle" x="573" y="-545" font-family="Inter, Helvetica, Arial, sans-serif" font-size="10.00" fill="#e6edf3">(&gt;= 3 frames, &gt;= 0.7 conf)</text>
<text text-anchor="middle" x="573" y="-534" font-family="Inter, Helvetica, Arial, sans-serif" font-size="10.00" fill="#e6edf3">confidence penalty: &#45;0.3</text>
</g>
<!-- cv_buffer&#45;&gt;cv_only -->
<g id="edge23" class="edge">
<title>cv_buffer&#45;&gt;cv_only</title>
<path fill="none" stroke="#78909c" stroke-dasharray="5,2" d="M566.58,-735C567.8,-699.67 570.61,-618.09 572.07,-575.49"/>
<polygon fill="#78909c" stroke="#78909c" points="574.53,-575.34 572.32,-568.26 569.63,-575.17 574.53,-575.34"/>
<text text-anchor="middle" x="584" y="-690.8" font-family="Inter, Helvetica, Arial, sans-serif" font-size="9.00" fill="#78909c">no IMU</text>
<text text-anchor="middle" x="584" y="-680.8" font-family="Inter, Helvetica, Arial, sans-serif" font-size="9.00" fill="#78909c">match</text>
</g>
<!-- imu_buffer&#45;&gt;matcher -->
<g id="edge18" class="edge">
<title>imu_buffer&#45;&gt;matcher</title>
<path fill="none" stroke="#ffd54f" d="M352.5,-734.74C362.98,-713.44 380.93,-676.96 393.36,-651.72"/>
<polygon fill="#ffd54f" stroke="#ffd54f" points="395.65,-652.6 396.55,-645.24 391.26,-650.44 395.65,-652.6"/>
</g>
<!-- imu_only -->
<g id="node24" class="node">
<title>imu_only</title>
<path fill="#131920" stroke="#78909c" stroke-width="1.5" d="M307,-393C307,-393 233,-393 233,-393 227,-393 221,-387 221,-381 221,-381 221,-353 221,-353 221,-347 227,-341 233,-341 233,-341 307,-341 307,-341 313,-341 319,-347 319,-353 319,-353 319,-381 319,-381 319,-387 313,-393 307,-393"/>
<text text-anchor="middle" x="270" y="-381" font-family="Inter, Helvetica, Arial, sans-serif" font-size="10.00" fill="#e6edf3">IMU&#45;Only Path</text>
<text text-anchor="middle" x="270" y="-370" font-family="Inter, Helvetica, Arial, sans-serif" font-size="10.00" fill="#e6edf3">(no CV match)</text>
<text text-anchor="middle" x="270" y="-359" font-family="Inter, Helvetica, Arial, sans-serif" font-size="10.00" fill="#e6edf3">default conf: 0.3</text>
<text text-anchor="middle" x="270" y="-348" font-family="Inter, Helvetica, Arial, sans-serif" font-size="10.00" fill="#e6edf3">infer type from pad</text>
</g>
<!-- imu_buffer&#45;&gt;imu_only -->
<g id="edge24" class="edge">
<title>imu_buffer&#45;&gt;imu_only</title>
<path fill="none" stroke="#78909c" stroke-dasharray="5,2" d="M333.94,-734.89C322.38,-714.31 303.87,-678.37 295,-645 272.08,-558.76 269.23,-452.67 269.41,-400.34"/>
<polygon fill="#78909c" stroke="#78909c" points="271.86,-400.34 269.45,-393.32 266.96,-400.31 271.86,-400.34"/>
<text text-anchor="middle" x="307.5" y="-625.8" font-family="Inter, Helvetica, Arial, sans-serif" font-size="9.00" fill="#78909c">no CV</text>
<text text-anchor="middle" x="307.5" y="-615.8" font-family="Inter, Helvetica, Arial, sans-serif" font-size="9.00" fill="#78909c">match</text>
</g>
<!-- pad_constraint -->
<g id="node20" class="node">
<title>pad_constraint</title>
<path fill="#1e2832" stroke="#ffd54f" stroke-width="1.5" d="M460.5,-494C460.5,-494 353.5,-494 353.5,-494 347.5,-494 341.5,-488 341.5,-482 341.5,-482 341.5,-438 341.5,-438 341.5,-432 347.5,-426 353.5,-426 353.5,-426 460.5,-426 460.5,-426 466.5,-426 472.5,-432 472.5,-438 472.5,-438 472.5,-482 472.5,-482 472.5,-488 466.5,-494 460.5,-494"/>
<text text-anchor="middle" x="407" y="-481.2" font-family="Inter, Helvetica, Arial, sans-serif" font-size="11.00" fill="#e6edf3">Pad Constraint Filter</text>
<text text-anchor="middle" x="407" y="-469.2" font-family="Inter, Helvetica, Arial, sans-serif" font-size="11.00" fill="#e6edf3">jab/cross &#45;&gt; centre</text>
<text text-anchor="middle" x="407" y="-457.2" font-family="Inter, Helvetica, Arial, sans-serif" font-size="11.00" fill="#e6edf3">L hook/L upper &#45;&gt; left</text>
<text text-anchor="middle" x="407" y="-445.2" font-family="Inter, Helvetica, Arial, sans-serif" font-size="11.00" fill="#e6edf3">R hook/R upper &#45;&gt; right</text>
<text text-anchor="middle" x="407" y="-433.2" font-family="Inter, Helvetica, Arial, sans-serif" font-size="11.00" fill="#e6edf3">all &#45;&gt; head</text>
</g>
<!-- matcher&#45;&gt;pad_constraint -->
<g id="edge19" class="edge">
<title>matcher&#45;&gt;pad_constraint</title>
<path fill="none" stroke="#ffd54f" d="M407,-600.95C407,-575.78 407,-533.08 407,-501.45"/>
<polygon fill="#ffd54f" stroke="#ffd54f" points="409.45,-501.08 407,-494.08 404.55,-501.08 409.45,-501.08"/>
</g>
<!-- reclassify -->
<g id="node21" class="node">
<title>reclassify</title>
<path fill="#1e2832" stroke="#ffd54f" stroke-width="1.5" d="M422,-304.5C422,-304.5 322,-304.5 322,-304.5 316,-304.5 310,-298.5 310,-292.5 310,-292.5 310,-260.5 310,-260.5 310,-254.5 316,-248.5 322,-248.5 322,-248.5 422,-248.5 422,-248.5 428,-248.5 434,-254.5 434,-260.5 434,-260.5 434,-292.5 434,-292.5 434,-298.5 428,-304.5 422,-304.5"/>
<text text-anchor="middle" x="372" y="-291.7" font-family="Inter, Helvetica, Arial, sans-serif" font-size="11.00" fill="#e6edf3">Reclassification</text>
<text text-anchor="middle" x="372" y="-279.7" font-family="Inter, Helvetica, Arial, sans-serif" font-size="11.00" fill="#e6edf3">If invalid for pad:</text>
<text text-anchor="middle" x="372" y="-267.7" font-family="Inter, Helvetica, Arial, sans-serif" font-size="11.00" fill="#e6edf3">check secondary class</text>
<text text-anchor="middle" x="372" y="-255.7" font-family="Inter, Helvetica, Arial, sans-serif" font-size="11.00" fill="#e6edf3">(conf &gt;= 0.25)</text>
</g>
<!-- pad_constraint&#45;&gt;reclassify -->
<g id="edge20" class="edge">
<title>pad_constraint&#45;&gt;reclassify</title>
<path fill="none" stroke="#ff5252" d="M400.58,-425.71C394.34,-393.36 384.91,-344.47 378.61,-311.78"/>
<polygon fill="#ff5252" stroke="#ff5252" points="380.97,-311.07 377.24,-304.66 376.16,-312 380.97,-311.07"/>
<text text-anchor="middle" x="410.5" y="-364.8" font-family="Inter, Helvetica, Arial, sans-serif" font-size="9.00" fill="#ff5252">invalid?</text>
</g>
<!-- confirmed -->
<g id="node22" class="node">
<title>confirmed</title>
<path fill="#1e2832" stroke="#00e676" stroke-width="1.5" d="M426.5,-159C426.5,-159 317.5,-159 317.5,-159 311.5,-159 305.5,-153 305.5,-147 305.5,-147 305.5,-115 305.5,-115 305.5,-109 311.5,-103 317.5,-103 317.5,-103 426.5,-103 426.5,-103 432.5,-103 438.5,-109 438.5,-115 438.5,-115 438.5,-147 438.5,-147 438.5,-153 432.5,-159 426.5,-159"/>
<text text-anchor="middle" x="372" y="-146.2" font-family="Inter, Helvetica, Arial, sans-serif" font-size="11.00" fill="#e6edf3">ConfirmedPunch</text>
<text text-anchor="middle" x="372" y="-134.2" font-family="Inter, Helvetica, Arial, sans-serif" font-size="11.00" fill="#e6edf3">(type, pad, force,</text>
<text text-anchor="middle" x="372" y="-122.2" font-family="Inter, Helvetica, Arial, sans-serif" font-size="11.00" fill="#e6edf3">cv_conf, imu_confirmed,</text>
<text text-anchor="middle" x="372" y="-110.2" font-family="Inter, Helvetica, Arial, sans-serif" font-size="11.00" fill="#e6edf3">accel_magnitude)</text>
</g>
<!-- pad_constraint&#45;&gt;confirmed -->
<g id="edge21" class="edge">
<title>pad_constraint&#45;&gt;confirmed</title>
<path fill="none" stroke="#00e676" d="M423.27,-425.99C427.89,-415.62 432.6,-404 436,-393 455.55,-329.79 458.76,-310.82 452,-245 449.54,-221.07 453.16,-212.76 441,-192 434.9,-181.58 426.33,-172.05 417.3,-163.81"/>
<polygon fill="#00e676" stroke="#00e676" points="418.82,-161.89 411.94,-159.11 415.59,-165.57 418.82,-161.89"/>
<text text-anchor="middle" x="466" y="-274.3" font-family="Inter, Helvetica, Arial, sans-serif" font-size="9.00" fill="#00e676">valid</text>
</g>
<!-- reclassify&#45;&gt;confirmed -->
<g id="edge22" class="edge">
<title>reclassify&#45;&gt;confirmed</title>
<path fill="none" stroke="#ff9800" d="M372,-248.17C372,-224.93 372,-191.44 372,-166.38"/>
<polygon fill="#ff9800" stroke="#ff9800" points="374.45,-166.23 372,-159.23 369.55,-166.23 374.45,-166.23"/>
<text text-anchor="middle" x="402" y="-204.8" font-family="Inter, Helvetica, Arial, sans-serif" font-size="9.00" fill="#ff9800">reclassified</text>
<text text-anchor="middle" x="402" y="-194.8" font-family="Inter, Helvetica, Arial, sans-serif" font-size="9.00" fill="#ff9800">or unclassified</text>
</g>
<!-- session_mgr -->
<g id="node29" class="node">
<title>session_mgr</title>
<path fill="#1e2832" stroke="#ce93d8" stroke-width="1.5" d="M241.5,-36C241.5,-36 162.5,-36 162.5,-36 156.5,-36 150.5,-30 150.5,-24 150.5,-24 150.5,-12 150.5,-12 150.5,-6 156.5,0 162.5,0 162.5,0 241.5,0 241.5,0 247.5,0 253.5,-6 253.5,-12 253.5,-12 253.5,-24 253.5,-24 253.5,-30 247.5,-36 241.5,-36"/>
<text text-anchor="middle" x="202" y="-21" font-family="Inter, Helvetica, Arial, sans-serif" font-size="10.00" fill="#e6edf3">Session Manager</text>
<text text-anchor="middle" x="202" y="-10" font-family="Inter, Helvetica, Arial, sans-serif" font-size="10.00" fill="#e6edf3">(accumulates stats)</text>
</g>
<!-- confirmed&#45;&gt;session_mgr -->
<g id="edge31" class="edge">
<title>confirmed&#45;&gt;session_mgr</title>
<path fill="none" stroke="#00e676" d="M330.41,-102.85C300.71,-83.45 261.35,-57.75 234.07,-39.94"/>
<polygon fill="#00e676" stroke="#00e676" points="235.29,-37.81 228.09,-36.04 232.61,-41.92 235.29,-37.81"/>
</g>
<!-- analytics -->
<g id="node30" class="node">
<title>analytics</title>
<path fill="#1e2832" stroke="#ce93d8" stroke-width="1.5" d="M375.5,-36C375.5,-36 304.5,-36 304.5,-36 298.5,-36 292.5,-30 292.5,-24 292.5,-24 292.5,-12 292.5,-12 292.5,-6 298.5,0 304.5,0 304.5,0 375.5,0 375.5,0 381.5,0 387.5,-6 387.5,-12 387.5,-12 387.5,-24 387.5,-24 387.5,-30 381.5,-36 375.5,-36"/>
<text text-anchor="middle" x="340" y="-21" font-family="Inter, Helvetica, Arial, sans-serif" font-size="10.00" fill="#e6edf3">Analytics Node</text>
<text text-anchor="middle" x="340" y="-10" font-family="Inter, Helvetica, Arial, sans-serif" font-size="10.00" fill="#e6edf3">(publishes JSON)</text>
</g>
<!-- confirmed&#45;&gt;analytics -->
<g id="edge32" class="edge">
<title>confirmed&#45;&gt;analytics</title>
<path fill="none" stroke="#00e676" stroke-dasharray="5,2" d="M364.17,-102.85C358.93,-84.65 352.08,-60.9 347.01,-43.32"/>
<polygon fill="#00e676" stroke="#00e676" points="349.25,-42.25 344.96,-36.2 344.54,-43.61 349.25,-42.25"/>
</g>
<!-- drill_mgr -->
<g id="node31" class="node">
<title>drill_mgr</title>
<path fill="#1e2832" stroke="#ce93d8" stroke-width="1.5" d="M506.5,-36C506.5,-36 435.5,-36 435.5,-36 429.5,-36 423.5,-30 423.5,-24 423.5,-24 423.5,-12 423.5,-12 423.5,-6 429.5,0 435.5,0 435.5,0 506.5,0 506.5,0 512.5,0 518.5,-6 518.5,-12 518.5,-12 518.5,-24 518.5,-24 518.5,-30 512.5,-36 506.5,-36"/>
<text text-anchor="middle" x="471" y="-21" font-family="Inter, Helvetica, Arial, sans-serif" font-size="10.00" fill="#e6edf3">Drill Manager</text>
<text text-anchor="middle" x="471" y="-10" font-family="Inter, Helvetica, Arial, sans-serif" font-size="10.00" fill="#e6edf3">(combo validation)</text>
</g>
<!-- confirmed&#45;&gt;drill_mgr -->
<g id="edge33" class="edge">
<title>confirmed&#45;&gt;drill_mgr</title>
<path fill="none" stroke="#00e676" stroke-dasharray="5,2" d="M396.22,-102.85C413.03,-84 435.15,-59.19 450.97,-41.46"/>
<polygon fill="#00e676" stroke="#00e676" points="452.83,-43.06 455.66,-36.2 449.17,-39.79 452.83,-43.06"/>
</g>
<!-- cv_only&#45;&gt;confirmed -->
<g id="edge25" class="edge">
<title>cv_only&#45;&gt;confirmed</title>
<path fill="none" stroke="#78909c" stroke-dasharray="5,2" d="M572.5,-526.99C570.09,-469.58 556.01,-298.62 474,-192 465.23,-180.59 453.62,-170.94 441.38,-162.93"/>
<polygon fill="#78909c" stroke="#78909c" points="442.57,-160.78 435.34,-159.13 439.96,-164.93 442.57,-160.78"/>
</g>
<!-- imu_only&#45;&gt;confirmed -->
<g id="edge26" class="edge">
<title>imu_only&#45;&gt;confirmed</title>
<path fill="none" stroke="#78909c" stroke-dasharray="5,2" d="M271.42,-340.53C273.54,-315.39 278.84,-276.3 292,-245 304.4,-215.51 325.53,-186.13 342.96,-164.73"/>
<polygon fill="#78909c" stroke="#78909c" points="344.97,-166.15 347.54,-159.19 341.19,-163.03 344.97,-166.15"/>
</g>
<!-- defense_window -->
<g id="node26" class="node">
<title>defense_window</title>
<path fill="#1e2832" stroke="#ff5252" stroke-width="1.5" d="M152.5,-478C152.5,-478 47.5,-478 47.5,-478 41.5,-478 35.5,-472 35.5,-466 35.5,-466 35.5,-454 35.5,-454 35.5,-448 41.5,-442 47.5,-442 47.5,-442 152.5,-442 152.5,-442 158.5,-442 164.5,-448 164.5,-454 164.5,-454 164.5,-466 164.5,-466 164.5,-472 158.5,-478 152.5,-478"/>
<text text-anchor="middle" x="100" y="-463" font-family="Inter, Helvetica, Arial, sans-serif" font-size="10.00" fill="#e6edf3">Defense Window</text>
<text text-anchor="middle" x="100" y="-452" font-family="Inter, Helvetica, Arial, sans-serif" font-size="10.00" fill="#e6edf3">(500ms after robot attack)</text>
</g>
<!-- robot_punch&#45;&gt;defense_window -->
<g id="edge28" class="edge">
<title>robot_punch&#45;&gt;defense_window</title>
<path fill="none" stroke="#ff5252" d="M100,-604.77C100,-576.08 100,-518.43 100,-485.52"/>
<polygon fill="#ff5252" stroke="#ff5252" points="102.45,-485.11 100,-478.11 97.55,-485.11 102.45,-485.11"/>
</g>
<!-- defense_classify -->
<g id="node27" class="node">
<title>defense_classify</title>
<path fill="#1e2832" stroke="#ff5252" stroke-width="1.5" d="M188,-308C188,-308 12,-308 12,-308 6,-308 0,-302 0,-296 0,-296 0,-257 0,-257 0,-251 6,-245 12,-245 12,-245 188,-245 188,-245 194,-245 200,-251 200,-257 200,-257 200,-296 200,-296 200,-302 194,-308 188,-308"/>
<text text-anchor="middle" x="100" y="-296" font-family="Inter, Helvetica, Arial, sans-serif" font-size="10.00" fill="#e6edf3">Defense Classification</text>
<text text-anchor="middle" x="100" y="-285" font-family="Inter, Helvetica, Arial, sans-serif" font-size="10.00" fill="#e6edf3">Block: CV block &gt;= 0.3</text>
<text text-anchor="middle" x="100" y="-274" font-family="Inter, Helvetica, Arial, sans-serif" font-size="10.00" fill="#e6edf3">Slip: lateral &gt;= 40px or depth &gt;= 0.15m</text>
<text text-anchor="middle" x="100" y="-263" font-family="Inter, Helvetica, Arial, sans-serif" font-size="10.00" fill="#e6edf3">Dodge: lateral &gt;= 20px or depth &gt;= 0.08m</text>
<text text-anchor="middle" x="100" y="-252" font-family="Inter, Helvetica, Arial, sans-serif" font-size="10.00" fill="#e6edf3">Hit: arm IMU contact</text>
</g>
<!-- defense_window&#45;&gt;defense_classify -->
<g id="edge29" class="edge">
<title>defense_window&#45;&gt;defense_classify</title>
<path fill="none" stroke="#ff5252" d="M100,-441.92C100,-413.1 100,-354.12 100,-315.2"/>
<polygon fill="#ff5252" stroke="#ff5252" points="102.45,-315.18 100,-308.18 97.55,-315.18 102.45,-315.18"/>
</g>
<!-- defense_event -->
<g id="node28" class="node">
<title>defense_event</title>
<path fill="#231810" stroke="#ff5252" stroke-width="1.5" d="M229,-151.5C229,-151.5 139,-151.5 139,-151.5 133,-151.5 127,-145.5 127,-139.5 127,-139.5 127,-122.5 127,-122.5 127,-116.5 133,-110.5 139,-110.5 139,-110.5 229,-110.5 229,-110.5 235,-110.5 241,-116.5 241,-122.5 241,-122.5 241,-139.5 241,-139.5 241,-145.5 235,-151.5 229,-151.5"/>
<text text-anchor="middle" x="184" y="-139.5" font-family="Inter, Helvetica, Arial, sans-serif" font-size="10.00" fill="#e6edf3">DefenseEvent</text>
<text text-anchor="middle" x="184" y="-128.5" font-family="Inter, Helvetica, Arial, sans-serif" font-size="10.00" fill="#e6edf3">(struck, defense_type,</text>
<text text-anchor="middle" x="184" y="-117.5" font-family="Inter, Helvetica, Arial, sans-serif" font-size="10.00" fill="#e6edf3">reaction_time_ms)</text>
</g>
<!-- defense_classify&#45;&gt;defense_event -->
<g id="edge30" class="edge">
<title>defense_classify&#45;&gt;defense_event</title>
<path fill="none" stroke="#ff5252" d="M118.02,-244.72C133.15,-218.86 154.54,-182.33 168.81,-157.94"/>
<polygon fill="#ff5252" stroke="#ff5252" points="171.04,-158.99 172.46,-151.71 166.81,-156.52 171.04,-158.99"/>
</g>
<!-- defense_event&#45;&gt;session_mgr -->
<g id="edge34" class="edge">
<title>defense_event&#45;&gt;session_mgr</title>
<path fill="none" stroke="#ff5252" d="M187.18,-110.41C190.21,-91.68 194.8,-63.37 198.07,-43.23"/>
<polygon fill="#ff5252" stroke="#ff5252" points="200.51,-43.51 199.21,-36.21 195.67,-42.73 200.51,-43.51"/>
</g>
</g>
</svg>
