<?xml version="1.0" encoding="UTF-8" standalone="no"?>
<!DOCTYPE svg PUBLIC "-//W3C//DTD SVG 1.1//EN"
 "http://www.w3.org/Graphics/SVG/1.1/DTD/svg11.dtd">
<!-- Generated by graphviz version 2.43.0 (0)
 -->
<!-- Title: GUIDashboardComm Pages: 1 -->
<svg width="2456pt" height="1158pt"
 viewBox="0.00 0.00 2456.00 1158.38" xmlns="http://www.w3.org/2000/svg" xmlns:xlink="http://www.w3.org/1999/xlink">
<g id="graph0" class="graph" transform="scale(1 1) rotate(0) translate(36 1122.38)">
<title>GUIDashboardComm</title>
<polygon fill="#0b0f14" stroke="transparent" points="-36,36 -36,-1122.38 2420,-1122.38 2420,36 -36,36"/>
<text text-anchor="middle" x="1192" y="-1069.58" font-family="Inter, Helvetica, Arial, sans-serif" font-size="16.00" fill="#e6edf3">GUI ↔ Phone Dashboard Communication Architecture</text>
<g id="clust1" class="cluster">
<title>cluster_phone</title>
<polygon fill="#0f1318" stroke="#2a3040" points="671,-762.38 671,-1052.38 959,-1052.38 959,-762.38 671,-762.38"/>
<text text-anchor="middle" x="720" y="-1039.58" font-family="Inter, Helvetica, Arial, sans-serif" font-size="11.00" fill="#8b949e">Phone (Browser)</text>
</g>
<g id="clust2" class="cluster">
<title>cluster_backend</title>
<polygon fill="#0f1318" stroke="#2a3040" points="8,-164.38 8,-551.38 1556,-551.38 1556,-164.38 8,-164.38"/>
<text text-anchor="middle" x="103" y="-538.58" font-family="Inter, Helvetica, Arial, sans-serif" font-size="11.00" fill="#8b949e">Jetson Orin NX — FastAPI Backend</text>
</g>
<g id="clust3" class="cluster">
<title>cluster_shared</title>
<polygon fill="#0f1318" stroke="#2a3040" points="1263,-8 1263,-100.38 2153,-100.38 2153,-8 1263,-8"/>
<text text-anchor="middle" x="1316.5" y="-87.58" font-family="Inter, Helvetica, Arial, sans-serif" font-size="11.00" fill="#8b949e">Shared Data Layer</text>
</g>
<g id="clust4" class="cluster">
<title>cluster_gui</title>
<polygon fill="#0f1318" stroke="#2a3040" points="1688,-164.38 1688,-551.38 2376,-551.38 2376,-164.38 1688,-164.38"/>
<text text-anchor="middle" x="1773" y="-538.58" font-family="Inter, Helvetica, Arial, sans-serif" font-size="11.00" fill="#8b949e">Jetson Orin NX — PySide6 GUI</text>
</g>
<!-- vue_app -->
<g id="node1" class="node">
<title>vue_app</title>
<path fill="#1c1430" stroke="#ab47bc" stroke-width="1.5" d="M851.5,-1024.38C851.5,-1024.38 786.5,-1024.38 786.5,-1024.38 780.5,-1024.38 774.5,-1018.38 774.5,-1012.38 774.5,-1012.38 774.5,-1000.38 774.5,-1000.38 774.5,-994.38 780.5,-988.38 786.5,-988.38 786.5,-988.38 851.5,-988.38 851.5,-988.38 857.5,-988.38 863.5,-994.38 863.5,-1000.38 863.5,-1000.38 863.5,-1012.38 863.5,-1012.38 863.5,-1018.38 857.5,-1024.38 851.5,-1024.38"/>
<text text-anchor="middle" x="819" y="-1009.58" font-family="Inter, Helvetica, Arial, sans-serif" font-size="11.00" fill="#e6edf3">Vue 3 SPA</text>
<text text-anchor="middle" x="819" y="-997.58" font-family="Inter, Helvetica, Arial, sans-serif" font-size="11.00" fill="#e6edf3">(Tailwind CSS)</text>
</g>
<!-- pinia -->
<g id="node2" class="node">
<title>pinia</title>
<path fill="#1c1430" stroke="#ab47bc" stroke-width="1.5" d="M863.5,-915.38C863.5,-915.38 774.5,-915.38 774.5,-915.38 768.5,-915.38 762.5,-909.38 762.5,-903.38 762.5,-903.38 762.5,-891.38 762.5,-891.38 762.5,-885.38 768.5,-879.38 774.5,-879.38 774.5,-879.38 863.5,-879.38 863.5,-879.38 869.5,-879.38 875.5,-885.38 875.5,-891.38 875.5,-891.38 875.5,-903.38 875.5,-903.38 875.5,-909.38 869.5,-915.38 863.5,-915.38"/>
<text text-anchor="middle" x="819" y="-900.58" font-family="Inter, Helvetica, Arial, sans-serif" font-size="11.00" fill="#e6edf3">Pinia Stores</text>
<text text-anchor="middle" x="819" y="-888.58" font-family="Inter, Helvetica, Arial, sans-serif" font-size="11.00" fill="#e6edf3">(auth, session, chat)</text>
</g>
<!-- vue_app&#45;&gt;pinia -->
<g id="edge1" class="edge">
<title>vue_app&#45;&gt;pinia</title>
<path fill="none" stroke="#ab47bc" stroke-dasharray="5,2" d="M819,-988.18C819,-970.48 819,-942.73 819,-922.76"/>
<polygon fill="#ab47bc" stroke="#ab47bc" points="821.45,-922.52 819,-915.52 816.55,-922.52 821.45,-922.52"/>
</g>
<!-- api_client -->
<g id="node3" class="node">
<title>api_client</title>
<path fill="#1c1430" stroke="#ab47bc" stroke-width="1.5" d="M789,-806.38C789,-806.38 691,-806.38 691,-806.38 685,-806.38 679,-800.38 679,-794.38 679,-794.38 679,-782.38 679,-782.38 679,-776.38 685,-770.38 691,-770.38 691,-770.38 789,-770.38 789,-770.38 795,-770.38 801,-776.38 801,-782.38 801,-782.38 801,-794.38 801,-794.38 801,-800.38 795,-806.38 789,-806.38"/>
<text text-anchor="middle" x="740" y="-791.58" font-family="Inter, Helvetica, Arial, sans-serif" font-size="11.00" fill="#e6edf3">API Client</text>
<text text-anchor="middle" x="740" y="-779.58" font-family="Inter, Helvetica, Arial, sans-serif" font-size="11.00" fill="#e6edf3">(fetch + Bearer token)</text>
</g>
<!-- pinia&#45;&gt;api_client -->
<g id="edge2" class="edge">
<title>pinia&#45;&gt;api_client</title>
<path fill="none" stroke="#ab47bc" stroke-dasharray="5,2" d="M806.31,-879.18C792.89,-861.01 771.66,-832.25 756.85,-812.19"/>
<polygon fill="#ab47bc" stroke="#ab47bc" points="758.79,-810.7 752.66,-806.52 754.85,-813.61 758.79,-810.7"/>
</g>
<!-- ws_client -->
<g id="node4" class="node">
<title>ws_client</title>
<path fill="#1c1430" stroke="#ab47bc" stroke-width="1.5" d="M939.5,-806.38C939.5,-806.38 856.5,-806.38 856.5,-806.38 850.5,-806.38 844.5,-800.38 844.5,-794.38 844.5,-794.38 844.5,-782.38 844.5,-782.38 844.5,-776.38 850.5,-770.38 856.5,-770.38 856.5,-770.38 939.5,-770.38 939.5,-770.38 945.5,-770.38 951.5,-776.38 951.5,-782.38 951.5,-782.38 951.5,-794.38 951.5,-794.38 951.5,-800.38 945.5,-806.38 939.5,-806.38"/>
<text text-anchor="middle" x="898" y="-791.58" font-family="Inter, Helvetica, Arial, sans-serif" font-size="11.00" fill="#e6edf3">WebSocket Client</text>
<text text-anchor="middle" x="898" y="-779.58" font-family="Inter, Helvetica, Arial, sans-serif" font-size="11.00" fill="#e6edf3">(real&#45;time updates)</text>
</g>
<!-- pinia&#45;&gt;ws_client -->
<g id="edge3" class="edge">
<title>pinia&#45;&gt;ws_client</title>
<path fill="none" stroke="#ab47bc" stroke-dasharray="5,2" d="M831.69,-879.18C845.11,-861.01 866.34,-832.25 881.15,-812.19"/>
<polygon fill="#ab47bc" stroke="#ab47bc" points="883.15,-813.61 885.34,-806.52 879.21,-810.7 883.15,-813.61"/>
</g>
<!-- wifi -->
<g id="node5" class="node">
<title>wifi</title>
<path fill="#231810" stroke="#ff6b35" stroke-width="1.5" d="M807.68,-672.25C807.68,-672.25 759.32,-643.5 759.32,-643.5 754.16,-640.44 754.16,-634.31 759.32,-631.25 759.32,-631.25 807.68,-602.5 807.68,-602.5 812.84,-599.44 823.16,-599.44 828.32,-602.5 828.32,-602.5 876.68,-631.25 876.68,-631.25 881.84,-634.31 881.84,-640.44 876.68,-643.5 876.68,-643.5 828.32,-672.25 828.32,-672.25 823.16,-675.31 812.84,-675.31 807.68,-672.25"/>
<text text-anchor="middle" x="818" y="-645.88" font-family="Inter, Helvetica, Arial, sans-serif" font-size="10.00" fill="#e6edf3">WiFi AP</text>
<text text-anchor="middle" x="818" y="-634.88" font-family="Inter, Helvetica, Arial, sans-serif" font-size="10.00" fill="#e6edf3">(BoxBunny)</text>
<text text-anchor="middle" x="818" y="-623.88" font-family="Inter, Helvetica, Arial, sans-serif" font-size="10.00" fill="#e6edf3">HTTP :8080</text>
</g>
<!-- api_client&#45;&gt;wifi -->
<g id="edge19" class="edge">
<title>api_client&#45;&gt;wifi</title>
<path fill="none" stroke="#ff6b35" d="M748.95,-770.28C761.01,-747.23 782.82,-705.58 798.71,-675.23"/>
<polygon fill="#ff6b35" stroke="#ff6b35" points="800.93,-676.27 802,-668.93 796.59,-674 800.93,-676.27"/>
<text text-anchor="middle" x="796.5" y="-727.17" font-family="Inter, Helvetica, Arial, sans-serif" font-size="9.00" fill="#ff6b35">REST API</text>
<text text-anchor="middle" x="796.5" y="-717.17" font-family="Inter, Helvetica, Arial, sans-serif" font-size="9.00" fill="#ff6b35">(JSON)</text>
</g>
<!-- ws_client&#45;&gt;wifi -->
<g id="edge20" class="edge">
<title>ws_client&#45;&gt;wifi</title>
<path fill="none" stroke="#00e676" d="M888.82,-770.28C876.45,-747.23 854.08,-705.58 837.79,-675.23"/>
<polygon fill="#00e676" stroke="#00e676" points="839.88,-673.94 834.41,-668.93 835.56,-676.26 839.88,-673.94"/>
<text text-anchor="middle" x="890.5" y="-727.17" font-family="Inter, Helvetica, Arial, sans-serif" font-size="9.00" fill="#00e676">WebSocket</text>
<text text-anchor="middle" x="890.5" y="-717.17" font-family="Inter, Helvetica, Arial, sans-serif" font-size="9.00" fill="#00e676">(real&#45;time)</text>
</g>
<!-- fastapi -->
<g id="node6" class="node">
<title>fastapi</title>
<path fill="#1e2832" stroke="#42a5f5" stroke-width="1.5" d="M806.71,-519.3C806.71,-519.3 746.29,-497.45 746.29,-497.45 740.64,-495.41 740.64,-491.34 746.29,-489.3 746.29,-489.3 806.71,-467.45 806.71,-467.45 812.36,-465.41 823.64,-465.41 829.29,-467.45 829.29,-467.45 889.71,-489.3 889.71,-489.3 895.36,-491.34 895.36,-495.41 889.71,-497.45 889.71,-497.45 829.29,-519.3 829.29,-519.3 823.64,-521.34 812.36,-521.34 806.71,-519.3"/>
<text text-anchor="middle" x="818" y="-496.38" font-family="Inter, Helvetica, Arial, sans-serif" font-size="10.00" fill="#e6edf3">FastAPI Server</text>
<text text-anchor="middle" x="818" y="-485.38" font-family="Inter, Helvetica, Arial, sans-serif" font-size="10.00" fill="#e6edf3">(uvicorn :8080)</text>
</g>
<!-- wifi&#45;&gt;fastapi -->
<g id="edge21" class="edge">
<title>wifi&#45;&gt;fastapi</title>
<path fill="none" stroke="#ff6b35" d="M818,-596.06C818,-575.47 818,-550.61 818,-530.63"/>
<polygon fill="#ff6b35" stroke="#ff6b35" points="820.45,-530.5 818,-523.5 815.55,-530.5 820.45,-530.5"/>
</g>
<!-- auth_api -->
<g id="node7" class="node">
<title>auth_api</title>
<path fill="#1e2832" stroke="#42a5f5" stroke-width="1.5" d="M1239.41,-384.74C1239.41,-384.74 1183.59,-355.01 1183.59,-355.01 1178.3,-352.19 1178.3,-346.56 1183.59,-343.74 1183.59,-343.74 1239.41,-314.01 1239.41,-314.01 1244.7,-311.19 1255.3,-311.19 1260.59,-314.01 1260.59,-314.01 1316.41,-343.74 1316.41,-343.74 1321.7,-346.56 1321.7,-352.19 1316.41,-355.01 1316.41,-355.01 1260.59,-384.74 1260.59,-384.74 1255.3,-387.56 1244.7,-387.56 1239.41,-384.74"/>
<text text-anchor="middle" x="1250" y="-357.88" font-family="Inter, Helvetica, Arial, sans-serif" font-size="10.00" fill="#e6edf3">/api/auth</text>
<text text-anchor="middle" x="1250" y="-346.88" font-family="Inter, Helvetica, Arial, sans-serif" font-size="10.00" fill="#e6edf3">(login, signup,</text>
<text text-anchor="middle" x="1250" y="-335.88" font-family="Inter, Helvetica, Arial, sans-serif" font-size="10.00" fill="#e6edf3">pattern, JWT)</text>
</g>
<!-- fastapi&#45;&gt;auth_api -->
<g id="edge4" class="edge">
<title>fastapi&#45;&gt;auth_api</title>
<path fill="none" stroke="#42a5f5" stroke-dasharray="5,2" d="M863.81,-479.82C928.57,-461.74 1050.33,-426.56 1152,-390.38 1170.7,-383.72 1191.06,-375.56 1208.36,-368.35"/>
</g>
<!-- session_api -->
<g id="node8" class="node">
<title>session_api</title>
<path fill="#1e2832" stroke="#42a5f5" stroke-width="1.5" d="M807.19,-385.16C807.19,-385.16 743.81,-354.59 743.81,-354.59 738.4,-351.98 738.4,-346.77 743.81,-344.16 743.81,-344.16 807.19,-313.59 807.19,-313.59 812.6,-310.98 823.4,-310.98 828.81,-313.59 828.81,-313.59 892.19,-344.16 892.19,-344.16 897.6,-346.77 897.6,-351.98 892.19,-354.59 892.19,-354.59 828.81,-385.16 828.81,-385.16 823.4,-387.77 812.6,-387.77 807.19,-385.16"/>
<text text-anchor="middle" x="818" y="-357.88" font-family="Inter, Helvetica, Arial, sans-serif" font-size="10.00" fill="#e6edf3">/api/sessions</text>
<text text-anchor="middle" x="818" y="-346.88" font-family="Inter, Helvetica, Arial, sans-serif" font-size="10.00" fill="#e6edf3">(history, trends,</text>
<text text-anchor="middle" x="818" y="-335.88" font-family="Inter, Helvetica, Arial, sans-serif" font-size="10.00" fill="#e6edf3">detail, raw)</text>
</g>
<!-- fastapi&#45;&gt;session_api -->
<g id="edge5" class="edge">
<title>fastapi&#45;&gt;session_api</title>
<path fill="none" stroke="#42a5f5" stroke-dasharray="5,2" d="M818,-463.3C818,-442.28 818,-413.63 818,-390.45"/>
</g>
<!-- chat_api -->
<g id="node9" class="node">
<title>chat_api</title>
<path fill="#1e2832" stroke="#42a5f5" stroke-width="1.5" d="M1447.63,-375.54C1447.63,-375.54 1381.37,-353.21 1381.37,-353.21 1375.69,-351.29 1375.69,-347.46 1381.37,-345.54 1381.37,-345.54 1447.63,-323.21 1447.63,-323.21 1453.31,-321.29 1464.69,-321.29 1470.37,-323.21 1470.37,-323.21 1536.63,-345.54 1536.63,-345.54 1542.31,-347.46 1542.31,-351.29 1536.63,-353.21 1536.63,-353.21 1470.37,-375.54 1470.37,-375.54 1464.69,-377.46 1453.31,-377.46 1447.63,-375.54"/>
<text text-anchor="middle" x="1459" y="-352.38" font-family="Inter, Helvetica, Arial, sans-serif" font-size="10.00" fill="#e6edf3">/api/chat</text>
<text text-anchor="middle" x="1459" y="-341.38" font-family="Inter, Helvetica, Arial, sans-serif" font-size="10.00" fill="#e6edf3">(LLM messages)</text>
</g>
<!-- fastapi&#45;&gt;chat_api -->
<g id="edge6" class="edge">
<title>fastapi&#45;&gt;chat_api</title>
<path fill="none" stroke="#42a5f5" stroke-dasharray="5,2" d="M876.05,-484.32C974.45,-469.97 1179.78,-437.07 1349,-390.38 1373,-383.75 1399.21,-374.31 1420.03,-366.26"/>
</g>
<!-- remote_api -->
<g id="node10" class="node">
<title>remote_api</title>
<path fill="#1e2832" stroke="#42a5f5" stroke-width="1.5" d="M1027.04,-385.49C1027.04,-385.49 956.96,-354.26 956.96,-354.26 951.48,-351.82 951.48,-346.93 956.96,-344.49 956.96,-344.49 1027.04,-313.26 1027.04,-313.26 1032.52,-310.82 1043.48,-310.82 1048.96,-313.26 1048.96,-313.26 1119.04,-344.49 1119.04,-344.49 1124.52,-346.93 1124.52,-351.82 1119.04,-354.26 1119.04,-354.26 1048.96,-385.49 1048.96,-385.49 1043.48,-387.93 1032.52,-387.93 1027.04,-385.49"/>
<text text-anchor="middle" x="1038" y="-357.88" font-family="Inter, Helvetica, Arial, sans-serif" font-size="10.00" fill="#e6edf3">/api/remote</text>
<text text-anchor="middle" x="1038" y="-346.88" font-family="Inter, Helvetica, Arial, sans-serif" font-size="10.00" fill="#e6edf3">(GUI commands,</text>
<text text-anchor="middle" x="1038" y="-335.88" font-family="Inter, Helvetica, Arial, sans-serif" font-size="10.00" fill="#e6edf3">height control)</text>
</g>
<!-- fastapi&#45;&gt;remote_api -->
<g id="edge7" class="edge">
<title>fastapi&#45;&gt;remote_api</title>
<path fill="none" stroke="#42a5f5" stroke-dasharray="5,2" d="M847.21,-473.52C886.95,-447.87 958.05,-401.98 1001.33,-374.05"/>
</g>
<!-- gamification_api -->
<g id="node11" class="node">
<title>gamification_api</title>
<path fill="#1e2832" stroke="#42a5f5" stroke-width="1.5" d="M344.88,-385.86C344.88,-385.86 266.12,-353.89 266.12,-353.89 260.56,-351.63 260.56,-347.12 266.12,-344.86 266.12,-344.86 344.88,-312.89 344.88,-312.89 350.44,-310.63 361.56,-310.63 367.12,-312.89 367.12,-312.89 445.88,-344.86 445.88,-344.86 451.44,-347.12 451.44,-351.63 445.88,-353.89 445.88,-353.89 367.12,-385.86 367.12,-385.86 361.56,-388.12 350.44,-388.12 344.88,-385.86"/>
<text text-anchor="middle" x="356" y="-357.88" font-family="Inter, Helvetica, Arial, sans-serif" font-size="10.00" fill="#e6edf3">/api/gamification</text>
<text text-anchor="middle" x="356" y="-346.88" font-family="Inter, Helvetica, Arial, sans-serif" font-size="10.00" fill="#e6edf3">(XP, achievements,</text>
<text text-anchor="middle" x="356" y="-335.88" font-family="Inter, Helvetica, Arial, sans-serif" font-size="10.00" fill="#e6edf3">benchmarks)</text>
</g>
<!-- fastapi&#45;&gt;gamification_api -->
<g id="edge8" class="edge">
<title>fastapi&#45;&gt;gamification_api</title>
<path fill="none" stroke="#42a5f5" stroke-dasharray="5,2" d="M773.48,-479.32C708.59,-460.22 584.28,-423.33 479,-390.38 456.5,-383.33 431.76,-375.34 410.41,-368.36"/>
</g>
<!-- preset_api -->
<g id="node12" class="node">
<title>preset_api</title>
<path fill="#1e2832" stroke="#42a5f5" stroke-width="1.5" d="M583.56,-375.76C583.56,-375.76 511.44,-352.99 511.44,-352.99 505.72,-351.18 505.72,-347.57 511.44,-345.76 511.44,-345.76 583.56,-322.99 583.56,-322.99 589.28,-321.18 600.72,-321.18 606.44,-322.99 606.44,-322.99 678.56,-345.76 678.56,-345.76 684.28,-347.57 684.28,-351.18 678.56,-352.99 678.56,-352.99 606.44,-375.76 606.44,-375.76 600.72,-377.57 589.28,-377.57 583.56,-375.76"/>
<text text-anchor="middle" x="595" y="-352.38" font-family="Inter, Helvetica, Arial, sans-serif" font-size="10.00" fill="#e6edf3">/api/presets</text>
<text text-anchor="middle" x="595" y="-341.38" font-family="Inter, Helvetica, Arial, sans-serif" font-size="10.00" fill="#e6edf3">(CRUD, favorites)</text>
</g>
<!-- fastapi&#45;&gt;preset_api -->
<g id="edge9" class="edge">
<title>fastapi&#45;&gt;preset_api</title>
<path fill="none" stroke="#42a5f5" stroke-dasharray="5,2" d="M788.85,-473.81C746.58,-446.9 668.65,-397.27 625.59,-369.85"/>
</g>
<!-- ws_server -->
<g id="node13" class="node">
<title>ws_server</title>
<path fill="#1e2832" stroke="#42a5f5" stroke-width="1.5" d="M102.93,-385.74C102.93,-385.74 27.07,-354.01 27.07,-354.01 21.54,-351.69 21.54,-347.06 27.07,-344.74 27.07,-344.74 102.93,-313.01 102.93,-313.01 108.46,-310.69 119.54,-310.69 125.07,-313.01 125.07,-313.01 200.93,-344.74 200.93,-344.74 206.46,-347.06 206.46,-351.69 200.93,-354.01 200.93,-354.01 125.07,-385.74 125.07,-385.74 119.54,-388.06 108.46,-388.06 102.93,-385.74"/>
<text text-anchor="middle" x="114" y="-357.88" font-family="Inter, Helvetica, Arial, sans-serif" font-size="10.00" fill="#e6edf3">WebSocket Server</text>
<text text-anchor="middle" x="114" y="-346.88" font-family="Inter, Helvetica, Arial, sans-serif" font-size="10.00" fill="#e6edf3">(/ws)</text>
<text text-anchor="middle" x="114" y="-335.88" font-family="Inter, Helvetica, Arial, sans-serif" font-size="10.00" fill="#e6edf3">(live session data)</text>
</g>
<!-- fastapi&#45;&gt;ws_server -->
<g id="edge10" class="edge">
<title>fastapi&#45;&gt;ws_server</title>
<path fill="none" stroke="#42a5f5" stroke-dasharray="5,2" d="M758.11,-484.91C651.64,-470.99 422.86,-438.06 234,-390.38 211,-384.57 186.05,-376.54 164.89,-369.2"/>
</g>
<!-- db_manager -->
<g id="node14" class="node">
<title>db_manager</title>
<polygon fill="#1c1430" stroke="#ab47bc" stroke-width="1.5" points="1221.5,-208.38 1126.5,-208.38 1126.5,-204.38 1122.5,-204.38 1122.5,-200.38 1126.5,-200.38 1126.5,-180.38 1122.5,-180.38 1122.5,-176.38 1126.5,-176.38 1126.5,-172.38 1221.5,-172.38 1221.5,-208.38"/>
<polyline fill="none" stroke="#ab47bc" stroke-width="1.5" points="1126.5,-204.38 1130.5,-204.38 1130.5,-200.38 1126.5,-200.38 "/>
<polyline fill="none" stroke="#ab47bc" stroke-width="1.5" points="1126.5,-180.38 1130.5,-180.38 1130.5,-176.38 1126.5,-176.38 "/>
<text text-anchor="middle" x="1174" y="-193.38" font-family="Inter, Helvetica, Arial, sans-serif" font-size="10.00" fill="#e6edf3">DatabaseManager</text>
<text text-anchor="middle" x="1174" y="-182.38" font-family="Inter, Helvetica, Arial, sans-serif" font-size="10.00" fill="#e6edf3">(SQLite queries)</text>
</g>
<!-- auth_api&#45;&gt;db_manager -->
<g id="edge11" class="edge">
<title>auth_api&#45;&gt;db_manager</title>
<path fill="none" stroke="#ab47bc" stroke-dasharray="5,2" d="M1234.44,-316.22C1219.86,-286.12 1198.43,-241.85 1185.39,-214.91"/>
<polygon fill="#ab47bc" stroke="#ab47bc" points="1187.52,-213.69 1182.27,-208.45 1183.11,-215.82 1187.52,-213.69"/>
</g>
<!-- tmp_login -->
<g id="node16" class="node">
<title>tmp_login</title>
<polygon fill="#1a1e28" stroke="#78909c" stroke-width="1.5" points="1998,-62.19 1858,-62.19 1858,-26.19 2004,-26.19 2004,-56.19 1998,-62.19"/>
<polyline fill="none" stroke="#78909c" stroke-width="1.5" points="1998,-62.19 1998,-56.19 "/>
<polyline fill="none" stroke="#78909c" stroke-width="1.5" points="2004,-56.19 1998,-56.19 "/>
<text text-anchor="middle" x="1931" y="-47.19" font-family="Inter, Helvetica, Arial, sans-serif" font-size="10.00" fill="#e6edf3">/tmp/boxbunny_gui_login.json</text>
<text text-anchor="middle" x="1931" y="-36.19" font-family="Inter, Helvetica, Arial, sans-serif" font-size="10.00" fill="#e6edf3">(phone login notification)</text>
</g>
<!-- auth_api&#45;&gt;tmp_login -->
<g id="edge24" class="edge">
<title>auth_api&#45;&gt;tmp_login</title>
<path fill="none" stroke="#78909c" d="M1280.5,-324.39C1298.37,-309.91 1321.07,-290.75 1340,-272.38 1375.11,-238.28 1442.54,-128.84 1487,-108.38 1522.33,-92.11 1799.58,-111.01 1837,-100.38 1861.2,-93.5 1885.63,-78.87 1903.51,-66.41"/>
<polygon fill="#78909c" stroke="#78909c" points="1905.03,-68.33 1909.31,-62.28 1902.19,-64.34 1905.03,-68.33"/>
<text text-anchor="middle" x="1456" y="-188.18" font-family="Inter, Helvetica, Arial, sans-serif" font-size="9.00" fill="#78909c">write login info</text>
</g>
<!-- session_api&#45;&gt;db_manager -->
<g id="edge12" class="edge">
<title>session_api&#45;&gt;db_manager</title>
<path fill="none" stroke="#ab47bc" stroke-dasharray="5,2" d="M862.41,-329.58C881.41,-322.11 904.02,-313.98 925,-308.38 1019.45,-283.14 1065.95,-333.81 1142,-272.38 1159.24,-258.45 1167.23,-233.93 1170.91,-215.5"/>
<polygon fill="#ab47bc" stroke="#ab47bc" points="1173.33,-215.84 1172.16,-208.52 1168.51,-214.98 1173.33,-215.84"/>
</g>
<!-- ros_nodes -->
<g id="node25" class="node">
<title>ros_nodes</title>
<path fill="#1e2832" stroke="#ff6b35" stroke-width="1.5" d="M1668,-216.38C1668,-216.38 1576,-216.38 1576,-216.38 1570,-216.38 1564,-210.38 1564,-204.38 1564,-204.38 1564,-176.38 1564,-176.38 1564,-170.38 1570,-164.38 1576,-164.38 1576,-164.38 1668,-164.38 1668,-164.38 1674,-164.38 1680,-170.38 1680,-176.38 1680,-176.38 1680,-204.38 1680,-204.38 1680,-210.38 1674,-216.38 1668,-216.38"/>
<text text-anchor="middle" x="1622" y="-204.38" font-family="Inter, Helvetica, Arial, sans-serif" font-size="10.00" fill="#e6edf3">ROS 2 Nodes</text>
<text text-anchor="middle" x="1622" y="-193.38" font-family="Inter, Helvetica, Arial, sans-serif" font-size="10.00" fill="#e6edf3">(session_manager,</text>
<text text-anchor="middle" x="1622" y="-182.38" font-family="Inter, Helvetica, Arial, sans-serif" font-size="10.00" fill="#e6edf3">punch_processor,</text>
<text text-anchor="middle" x="1622" y="-171.38" font-family="Inter, Helvetica, Arial, sans-serif" font-size="10.00" fill="#e6edf3">cv_node, llm_node, ...)</text>
</g>
<!-- chat_api&#45;&gt;ros_nodes -->
<g id="edge33" class="edge">
<title>chat_api&#45;&gt;ros_nodes</title>
<path fill="none" stroke="#64b5f6" d="M1481.32,-326.87C1509.59,-299.64 1558.48,-252.56 1590.53,-221.69"/>
<polygon fill="#64b5f6" stroke="#64b5f6" points="1592.57,-223.12 1595.91,-216.5 1589.17,-219.59 1592.57,-223.12"/>
<text text-anchor="middle" x="1584.5" y="-265.18" font-family="Inter, Helvetica, Arial, sans-serif" font-size="9.00" fill="#64b5f6">/llm/generate</text>
<text text-anchor="middle" x="1584.5" y="-255.18" font-family="Inter, Helvetica, Arial, sans-serif" font-size="9.00" fill="#64b5f6">(ROS Service)</text>
</g>
<!-- tmp_cmd -->
<g id="node15" class="node">
<title>tmp_cmd</title>
<polygon fill="#1a1e28" stroke="#78909c" stroke-width="1.5" points="1608,-62.19 1446,-62.19 1446,-26.19 1614,-26.19 1614,-56.19 1608,-62.19"/>
<polyline fill="none" stroke="#78909c" stroke-width="1.5" points="1608,-62.19 1608,-56.19 "/>
<polyline fill="none" stroke="#78909c" stroke-width="1.5" points="1614,-56.19 1608,-56.19 "/>
<text text-anchor="middle" x="1530" y="-47.19" font-family="Inter, Helvetica, Arial, sans-serif" font-size="10.00" fill="#e6edf3">/tmp/boxbunny_gui_command.json</text>
<text text-anchor="middle" x="1530" y="-36.19" font-family="Inter, Helvetica, Arial, sans-serif" font-size="10.00" fill="#e6edf3">(remote control commands)</text>
</g>
<!-- remote_api&#45;&gt;tmp_cmd -->
<g id="edge22" class="edge">
<title>remote_api&#45;&gt;tmp_cmd</title>
<path fill="none" stroke="#78909c" d="M1027.52,-312.91C1017.96,-272.65 1009.71,-207.05 1042,-164.38 1093.32,-96.55 1141.15,-122.64 1225,-108.38 1268.85,-100.92 1382.04,-111.89 1425,-100.38 1451.5,-93.27 1478.85,-78.62 1499,-66.19"/>
<polygon fill="#78909c" stroke="#78909c" points="1500.38,-68.22 1505.01,-62.42 1497.78,-64.07 1500.38,-68.22"/>
<text text-anchor="middle" x="1073.5" y="-188.18" font-family="Inter, Helvetica, Arial, sans-serif" font-size="9.00" fill="#78909c">write command</text>
</g>
<!-- tmp_height -->
<g id="node17" class="node">
<title>tmp_height</title>
<polygon fill="#1a1e28" stroke="#78909c" stroke-width="1.5" points="1809,-62.19 1657,-62.19 1657,-26.19 1815,-26.19 1815,-56.19 1809,-62.19"/>
<polyline fill="none" stroke="#78909c" stroke-width="1.5" points="1809,-62.19 1809,-56.19 "/>
<polyline fill="none" stroke="#78909c" stroke-width="1.5" points="1815,-56.19 1809,-56.19 "/>
<text text-anchor="middle" x="1736" y="-47.19" font-family="Inter, Helvetica, Arial, sans-serif" font-size="10.00" fill="#e6edf3">/tmp/boxbunny_height_cmd.json</text>
<text text-anchor="middle" x="1736" y="-36.19" font-family="Inter, Helvetica, Arial, sans-serif" font-size="10.00" fill="#e6edf3">(height adjustment)</text>
</g>
<!-- remote_api&#45;&gt;tmp_height -->
<g id="edge23" class="edge">
<title>remote_api&#45;&gt;tmp_height</title>
<path fill="none" stroke="#78909c" d="M1076.24,-325.37C1100.66,-310.52 1132.9,-290.64 1161,-272.38 1198,-248.33 1207.33,-242.36 1243,-216.38 1273.47,-194.18 1277.27,-183.07 1310,-164.38 1368.55,-130.93 1385.06,-122.47 1451,-108.38 1491.24,-99.77 1596.38,-111.5 1636,-100.38 1661.21,-93.3 1687.03,-78.83 1706.11,-66.49"/>
<polygon fill="#78909c" stroke="#78909c" points="1707.82,-68.3 1712.31,-62.4 1705.12,-64.21 1707.82,-68.3"/>
<text text-anchor="middle" x="1343.5" y="-188.18" font-family="Inter, Helvetica, Arial, sans-serif" font-size="9.00" fill="#78909c">write height cmd</text>
</g>
<!-- gamification_api&#45;&gt;db_manager -->
<g id="edge13" class="edge">
<title>gamification_api&#45;&gt;db_manager</title>
<path fill="none" stroke="#ab47bc" stroke-dasharray="5,2" d="M407.83,-329.41C429.58,-322 455.29,-313.97 479,-308.38 747.57,-245.05 823.96,-277.68 1093,-216.38 1101.61,-214.41 1110.62,-212 1119.39,-209.45"/>
<polygon fill="#ab47bc" stroke="#ab47bc" points="1120.34,-211.73 1126.35,-207.39 1118.94,-207.03 1120.34,-211.73"/>
</g>
<!-- preset_api&#45;&gt;db_manager -->
<g id="edge14" class="edge">
<title>preset_api&#45;&gt;db_manager</title>
<path fill="none" stroke="#ab47bc" stroke-dasharray="5,2" d="M635.21,-331.96C657.47,-323.55 685.86,-313.94 712,-308.38 799.08,-289.84 1032.87,-315.05 1111,-272.38 1134.39,-259.6 1151.96,-234.09 1162.52,-215.09"/>
<polygon fill="#ab47bc" stroke="#ab47bc" points="1164.95,-215.75 1166.1,-208.42 1160.63,-213.44 1164.95,-215.75"/>
</g>
<!-- main_db -->
<g id="node18" class="node">
<title>main_db</title>
<path fill="#1c1430" stroke="#ab47bc" stroke-width="1.5" d="M2145,-67.4C2145,-70.25 2123.04,-72.56 2096,-72.56 2068.96,-72.56 2047,-70.25 2047,-67.4 2047,-67.4 2047,-20.97 2047,-20.97 2047,-18.12 2068.96,-15.81 2096,-15.81 2123.04,-15.81 2145,-18.12 2145,-20.97 2145,-20.97 2145,-67.4 2145,-67.4"/>
<path fill="none" stroke="#ab47bc" stroke-width="1.5" d="M2145,-67.4C2145,-64.56 2123.04,-62.25 2096,-62.25 2068.96,-62.25 2047,-64.56 2047,-67.4"/>
<text text-anchor="middle" x="2096" y="-52.69" font-family="Inter, Helvetica, Arial, sans-serif" font-size="10.00" fill="#e6edf3">boxbunny_main.db</text>
<text text-anchor="middle" x="2096" y="-41.69" font-family="Inter, Helvetica, Arial, sans-serif" font-size="10.00" fill="#e6edf3">(users, presets,</text>
<text text-anchor="middle" x="2096" y="-30.69" font-family="Inter, Helvetica, Arial, sans-serif" font-size="10.00" fill="#e6edf3">auth sessions)</text>
</g>
<!-- db_manager&#45;&gt;main_db -->
<g id="edge28" class="edge">
<title>db_manager&#45;&gt;main_db</title>
<path fill="none" stroke="#ab47bc" d="M1221.53,-172.83C1232.42,-169.57 1244.02,-166.5 1255,-164.38 1592.59,-99.07 1706.08,-226.39 2026,-100.38 2039.49,-95.06 2052.48,-86.25 2063.53,-77.21"/>
<polygon fill="#ab47bc" stroke="#ab47bc" points="2065.36,-78.87 2069.12,-72.48 2062.19,-75.13 2065.36,-78.87"/>
<text text-anchor="middle" x="2008.5" y="-116.17" font-family="Inter, Helvetica, Arial, sans-serif" font-size="9.00" fill="#ab47bc">read/write</text>
</g>
<!-- user_dbs -->
<g id="node19" class="node">
<title>user_dbs</title>
<path fill="#1c1430" stroke="#ab47bc" stroke-width="1.5" d="M1403,-67.4C1403,-70.25 1373.42,-72.56 1337,-72.56 1300.58,-72.56 1271,-70.25 1271,-67.4 1271,-67.4 1271,-20.97 1271,-20.97 1271,-18.12 1300.58,-15.81 1337,-15.81 1373.42,-15.81 1403,-18.12 1403,-20.97 1403,-20.97 1403,-67.4 1403,-67.4"/>
<path fill="none" stroke="#ab47bc" stroke-width="1.5" d="M1403,-67.4C1403,-64.56 1373.42,-62.25 1337,-62.25 1300.58,-62.25 1271,-64.56 1271,-67.4"/>
<text text-anchor="middle" x="1337" y="-52.69" font-family="Inter, Helvetica, Arial, sans-serif" font-size="10.00" fill="#e6edf3">users/{name}/boxbunny.db</text>
<text text-anchor="middle" x="1337" y="-41.69" font-family="Inter, Helvetica, Arial, sans-serif" font-size="10.00" fill="#e6edf3">(training sessions,</text>
<text text-anchor="middle" x="1337" y="-30.69" font-family="Inter, Helvetica, Arial, sans-serif" font-size="10.00" fill="#e6edf3">XP, achievements)</text>
</g>
<!-- db_manager&#45;&gt;user_dbs -->
<g id="edge29" class="edge">
<title>db_manager&#45;&gt;user_dbs</title>
<path fill="none" stroke="#ab47bc" d="M1190.67,-172.08C1207.09,-155.31 1233.1,-129.37 1257,-108.38 1269.11,-97.74 1282.72,-86.67 1295.24,-76.83"/>
<polygon fill="#ab47bc" stroke="#ab47bc" points="1296.9,-78.64 1300.91,-72.4 1293.88,-74.78 1296.9,-78.64"/>
<text text-anchor="middle" x="1266.5" y="-116.17" font-family="Inter, Helvetica, Arial, sans-serif" font-size="9.00" fill="#ab47bc">read</text>
</g>
<!-- gui_app -->
<g id="node20" class="node">
<title>gui_app</title>
<path fill="#1e2832" stroke="#00e676" stroke-width="1.5" d="M2025.55,-519.8C2025.55,-519.8 1952.45,-496.95 1952.45,-496.95 1946.73,-495.16 1946.73,-491.59 1952.45,-489.8 1952.45,-489.8 2025.55,-466.95 2025.55,-466.95 2031.27,-465.16 2042.73,-465.16 2048.45,-466.95 2048.45,-466.95 2121.55,-489.8 2121.55,-489.8 2127.27,-491.59 2127.27,-495.16 2121.55,-496.95 2121.55,-496.95 2048.45,-519.8 2048.45,-519.8 2042.73,-521.59 2031.27,-521.59 2025.55,-519.8"/>
<text text-anchor="middle" x="2037" y="-496.38" font-family="Inter, Helvetica, Arial, sans-serif" font-size="10.00" fill="#e6edf3">BoxBunnyApp</text>
<text text-anchor="middle" x="2037" y="-485.38" font-family="Inter, Helvetica, Arial, sans-serif" font-size="10.00" fill="#e6edf3">(QStackedWidget)</text>
</g>
<!-- gui_bridge -->
<g id="node21" class="node">
<title>gui_bridge</title>
<path fill="#1e2832" stroke="#00e676" stroke-width="1.5" d="M1784.9,-385.82C1784.9,-385.82 1707.1,-353.93 1707.1,-353.93 1701.55,-351.65 1701.55,-347.1 1707.1,-344.82 1707.1,-344.82 1784.9,-312.93 1784.9,-312.93 1790.45,-310.65 1801.55,-310.65 1807.1,-312.93 1807.1,-312.93 1884.9,-344.82 1884.9,-344.82 1890.45,-347.1 1890.45,-351.65 1884.9,-353.93 1884.9,-353.93 1807.1,-385.82 1807.1,-385.82 1801.55,-388.1 1790.45,-388.1 1784.9,-385.82"/>
<text text-anchor="middle" x="1796" y="-357.88" font-family="Inter, Helvetica, Arial, sans-serif" font-size="10.00" fill="#e6edf3">GuiBridge</text>
<text text-anchor="middle" x="1796" y="-346.88" font-family="Inter, Helvetica, Arial, sans-serif" font-size="10.00" fill="#e6edf3">(ROS 2 ↔ Qt</text>
<text text-anchor="middle" x="1796" y="-335.88" font-family="Inter, Helvetica, Arial, sans-serif" font-size="10.00" fill="#e6edf3">background thread)</text>
</g>
<!-- gui_app&#45;&gt;gui_bridge -->
<g id="edge15" class="edge">
<title>gui_app&#45;&gt;gui_bridge</title>
<path fill="none" stroke="#00e676" stroke-dasharray="5,2" d="M2004.5,-473.22C1960.94,-447.56 1883.66,-402.03 1836.41,-374.18"/>
</g>
<!-- cmd_poller -->
<g id="node22" class="node">
<title>cmd_poller</title>
<path fill="#1e2832" stroke="#00e676" stroke-width="1.5" d="M2025.53,-375.86C2025.53,-375.86 1950.47,-352.89 1950.47,-352.89 1944.74,-351.13 1944.74,-347.62 1950.47,-345.86 1950.47,-345.86 2025.53,-322.89 2025.53,-322.89 2031.26,-321.13 2042.74,-321.13 2048.47,-322.89 2048.47,-322.89 2123.53,-345.86 2123.53,-345.86 2129.26,-347.62 2129.26,-351.13 2123.53,-352.89 2123.53,-352.89 2048.47,-375.86 2048.47,-375.86 2042.74,-377.62 2031.26,-377.62 2025.53,-375.86"/>
<text text-anchor="middle" x="2037" y="-352.38" font-family="Inter, Helvetica, Arial, sans-serif" font-size="10.00" fill="#e6edf3">Remote Command</text>
<text text-anchor="middle" x="2037" y="-341.38" font-family="Inter, Helvetica, Arial, sans-serif" font-size="10.00" fill="#e6edf3">Poller (100ms)</text>
</g>
<!-- gui_app&#45;&gt;cmd_poller -->
<g id="edge16" class="edge">
<title>gui_app&#45;&gt;cmd_poller</title>
<path fill="none" stroke="#00e676" stroke-dasharray="5,2" d="M2037,-463.3C2037,-438.79 2037,-403.91 2037,-379.41"/>
</g>
<!-- gui_pages -->
<g id="node23" class="node">
<title>gui_pages</title>
<path fill="#1e2832" stroke="#00e676" stroke-width="1.5" d="M2261.98,-385.62C2261.98,-385.62 2189.02,-354.13 2189.02,-354.13 2183.51,-351.75 2183.51,-347 2189.02,-344.62 2189.02,-344.62 2261.98,-313.13 2261.98,-313.13 2267.49,-310.75 2278.51,-310.75 2284.02,-313.13 2284.02,-313.13 2356.98,-344.62 2356.98,-344.62 2362.49,-347 2362.49,-351.75 2356.98,-354.13 2356.98,-354.13 2284.02,-385.62 2284.02,-385.62 2278.51,-388 2267.49,-388 2261.98,-385.62"/>
<text text-anchor="middle" x="2273" y="-357.88" font-family="Inter, Helvetica, Arial, sans-serif" font-size="10.00" fill="#e6edf3">24 Pages</text>
<text text-anchor="middle" x="2273" y="-346.88" font-family="Inter, Helvetica, Arial, sans-serif" font-size="10.00" fill="#e6edf3">(training, sparring,</text>
<text text-anchor="middle" x="2273" y="-335.88" font-family="Inter, Helvetica, Arial, sans-serif" font-size="10.00" fill="#e6edf3">results, settings)</text>
</g>
<!-- gui_app&#45;&gt;gui_pages -->
<g id="edge17" class="edge">
<title>gui_app&#45;&gt;gui_pages</title>
<path fill="none" stroke="#00e676" stroke-dasharray="5,2" d="M2068.83,-473.22C2111.73,-447.41 2188.05,-401.49 2234.25,-373.69"/>
</g>
<!-- gui_bridge&#45;&gt;ros_nodes -->
<g id="edge31" class="edge">
<title>gui_bridge&#45;&gt;ros_nodes</title>
<path fill="none" stroke="#ff6b35" d="M1746.47,-322.4C1724.07,-309.23 1698.17,-291.89 1678,-272.38 1663.03,-257.89 1649.63,-238.85 1639.69,-222.87"/>
<polygon fill="#ff6b35" stroke="#ff6b35" points="1745.4,-324.61 1752.69,-326 1747.86,-320.37 1745.4,-324.61"/>
<polygon fill="#ff6b35" stroke="#ff6b35" points="1641.66,-221.38 1635.92,-216.68 1637.47,-223.93 1641.66,-221.38"/>
<text text-anchor="middle" x="1706" y="-265.18" font-family="Inter, Helvetica, Arial, sans-serif" font-size="9.00" fill="#ff6b35">ROS 2 Topics</text>
<text text-anchor="middle" x="1706" y="-255.18" font-family="Inter, Helvetica, Arial, sans-serif" font-size="9.00" fill="#ff6b35">&amp; Services</text>
</g>
<!-- cmd_poller&#45;&gt;tmp_cmd -->
<g id="edge25" class="edge">
<title>cmd_poller&#45;&gt;tmp_cmd</title>
<path fill="none" stroke="#00e676" d="M1998.7,-325.47C1901.04,-267.07 1644.35,-113.57 1558.46,-62.21"/>
<polygon fill="#00e676" stroke="#00e676" points="1997.64,-327.69 2004.9,-329.18 2000.15,-323.48 1997.64,-327.69"/>
<text text-anchor="middle" x="1837" y="-193.18" font-family="Inter, Helvetica, Arial, sans-serif" font-size="9.00" fill="#00e676">poll &amp; delete</text>
<text text-anchor="middle" x="1837" y="-183.18" font-family="Inter, Helvetica, Arial, sans-serif" font-size="9.00" fill="#00e676">(every 100ms)</text>
</g>
<!-- cmd_poller&#45;&gt;tmp_login -->
<g id="edge26" class="edge">
<title>cmd_poller&#45;&gt;tmp_login</title>
<path fill="none" stroke="#00e676" d="M2010.01,-320.42C1987.69,-295.38 1957.39,-256.5 1943,-216.38 1923.79,-162.81 1926.56,-93.88 1929.21,-62.33"/>
<polygon fill="#00e676" stroke="#00e676" points="2008.41,-322.31 2014.93,-325.86 2012.05,-319.03 2008.41,-322.31"/>
<text text-anchor="middle" x="1969" y="-188.18" font-family="Inter, Helvetica, Arial, sans-serif" font-size="9.00" fill="#00e676">poll &amp; delete</text>
</g>
<!-- cmd_poller&#45;&gt;tmp_height -->
<g id="edge27" class="edge">
<title>cmd_poller&#45;&gt;tmp_height</title>
<path fill="none" stroke="#00e676" d="M2039.59,-312.91C2040.6,-272.4 2036.04,-206.32 2001,-164.38 1950.84,-104.33 1907.92,-133.42 1837,-100.38 1812.19,-88.81 1785.01,-73.82 1765.1,-62.38"/>
<polygon fill="#00e676" stroke="#00e676" points="2037.14,-312.84 2039.36,-319.92 2042.04,-313.01 2037.14,-312.84"/>
<text text-anchor="middle" x="2053" y="-188.18" font-family="Inter, Helvetica, Arial, sans-serif" font-size="9.00" fill="#00e676">poll &amp; delete</text>
</g>
<!-- db_helper -->
<g id="node24" class="node">
<title>db_helper</title>
<polygon fill="#1c1430" stroke="#ab47bc" stroke-width="1.5" points="2291.5,-208.38 2204.5,-208.38 2204.5,-204.38 2200.5,-204.38 2200.5,-200.38 2204.5,-200.38 2204.5,-180.38 2200.5,-180.38 2200.5,-176.38 2204.5,-176.38 2204.5,-172.38 2291.5,-172.38 2291.5,-208.38"/>
<polyline fill="none" stroke="#ab47bc" stroke-width="1.5" points="2204.5,-204.38 2208.5,-204.38 2208.5,-200.38 2204.5,-200.38 "/>
<polyline fill="none" stroke="#ab47bc" stroke-width="1.5" points="2204.5,-180.38 2208.5,-180.38 2208.5,-176.38 2204.5,-176.38 "/>
<text text-anchor="middle" x="2248" y="-193.38" font-family="Inter, Helvetica, Arial, sans-serif" font-size="10.00" fill="#e6edf3">db_helper.py</text>
<text text-anchor="middle" x="2248" y="-182.38" font-family="Inter, Helvetica, Arial, sans-serif" font-size="10.00" fill="#e6edf3">(SQLite queries)</text>
</g>
<!-- gui_pages&#45;&gt;db_helper -->
<g id="edge18" class="edge">
<title>gui_pages&#45;&gt;db_helper</title>
<path fill="none" stroke="#ab47bc" stroke-dasharray="5,2" d="M2267.01,-310.77C2262.31,-281.21 2255.89,-240.92 2251.85,-215.53"/>
<polygon fill="#ab47bc" stroke="#ab47bc" points="2254.24,-215 2250.72,-208.47 2249.4,-215.77 2254.24,-215"/>
</g>
<!-- db_helper&#45;&gt;main_db -->
<g id="edge30" class="edge">
<title>db_helper&#45;&gt;main_db</title>
<path fill="none" stroke="#ab47bc" d="M2232.06,-172.21C2216.39,-155.53 2191.59,-129.66 2169,-108.38 2157.89,-97.9 2145.44,-86.88 2134.01,-77.03"/>
<polygon fill="#ab47bc" stroke="#ab47bc" points="2135.41,-75 2128.5,-72.3 2132.21,-78.71 2135.41,-75"/>
<text text-anchor="middle" x="2209.5" y="-116.17" font-family="Inter, Helvetica, Arial, sans-serif" font-size="9.00" fill="#ab47bc">read/write</text>
</g>
<!-- ros_nodes&#45;&gt;user_dbs -->
<g id="edge32" class="edge">
<title>ros_nodes&#45;&gt;user_dbs</title>
<path fill="none" stroke="#ab47bc" stroke-dasharray="5,2" d="M1563.68,-165.5C1523.93,-148.63 1470.48,-124.76 1425,-100.38 1411.36,-93.06 1396.97,-84.44 1383.87,-76.22"/>
<polygon fill="#ab47bc" stroke="#ab47bc" points="1385.17,-74.15 1377.94,-72.48 1382.55,-78.29 1385.17,-74.15"/>
<text text-anchor="middle" x="1515" y="-121.17" font-family="Inter, Helvetica, Arial, sans-serif" font-size="9.00" fill="#ab47bc">session_manager</text>
<text text-anchor="middle" x="1515" y="-111.17" font-family="Inter, Helvetica, Arial, sans-serif" font-size="9.00" fill="#ab47bc">saves sessions</text>
</g>
</g>
</svg>
