<?xml version="1.0" encoding="UTF-8" standalone="no"?>
<!DOCTYPE svg PUBLIC "-//W3C//DTD SVG 1.1//EN"
 "http://www.w3.org/Graphics/SVG/1.1/DTD/svg11.dtd">
<!-- Generated by graphviz version 2.43.0 (0)
 -->
<!-- Title: BoxBunnyROS Pages: 1 -->
<svg width="1967pt" height="1168pt"
 viewBox="0.00 0.00 1967.00 1167.50" xmlns="http://www.w3.org/2000/svg" xmlns:xlink="http://www.w3.org/1999/xlink">
<g id="graph0" class="graph" transform="scale(1 1) rotate(0) translate(36 1131.5)">
<title>BoxBunnyROS</title>
<polygon fill="#0b0f14" stroke="transparent" points="-36,36 -36,-1131.5 1931,-1131.5 1931,36 -36,36"/>
<g id="clust1" class="cluster">
<title>cluster_legend</title>
<path fill="#0b0f14" stroke="#2a3040" stroke-dasharray="5,2" d="M1727,-281.25C1727,-281.25 1875,-281.25 1875,-281.25 1881,-281.25 1887,-287.25 1887,-293.25 1887,-293.25 1887,-1075.5 1887,-1075.5 1887,-1081.5 1881,-1087.5 1875,-1087.5 1875,-1087.5 1727,-1087.5 1727,-1087.5 1721,-1087.5 1715,-1081.5 1715,-1075.5 1715,-1075.5 1715,-293.25 1715,-293.25 1715,-287.25 1721,-281.25 1727,-281.25"/>
<text text-anchor="middle" x="1739" y="-1075.5" font-family="Inter, Helvetica, Arial, sans-serif" font-size="10.00" fill="#8b949e">Legend</text>
</g>
<!-- realsense -->
<g id="node1" class="node">
<title>realsense</title>
<polygon fill="#1a1e28" stroke="#3a4250" stroke-width="1.5" points="208,-1060.5 120,-1060.5 116,-1056.5 116,-1024.5 204,-1024.5 208,-1028.5 208,-1060.5"/>
<polyline fill="none" stroke="#3a4250" stroke-width="1.5" points="204,-1056.5 116,-1056.5 "/>
<polyline fill="none" stroke="#3a4250" stroke-width="1.5" points="204,-1056.5 204,-1024.5 "/>
<polyline fill="none" stroke="#3a4250" stroke-width="1.5" points="204,-1056.5 208,-1060.5 "/>
<text text-anchor="middle" x="162" y="-1045.7" font-family="Inter, Helvetica, Arial, sans-serif" font-size="11.00" fill="#e6edf3">Intel RealSense</text>
<text text-anchor="middle" x="162" y="-1033.7" font-family="Inter, Helvetica, Arial, sans-serif" font-size="11.00" fill="#e6edf3">D435i</text>
</g>
<!-- cv_node -->
<g id="node6" class="node">
<title>cv_node</title>
<path fill="#1e2832" stroke="#ff6b35" stroke-width="2" d="M206.5,-898.5C206.5,-898.5 117.5,-898.5 117.5,-898.5 111.5,-898.5 105.5,-892.5 105.5,-886.5 105.5,-886.5 105.5,-874.5 105.5,-874.5 105.5,-868.5 111.5,-862.5 117.5,-862.5 117.5,-862.5 206.5,-862.5 206.5,-862.5 212.5,-862.5 218.5,-868.5 218.5,-874.5 218.5,-874.5 218.5,-886.5 218.5,-886.5 218.5,-892.5 212.5,-898.5 206.5,-898.5"/>
<text text-anchor="middle" x="162" y="-883.7" font-family="Inter, Helvetica, Arial, sans-serif" font-size="11.00" fill="#e6edf3">cv_node</text>
<text text-anchor="middle" x="162" y="-871.7" font-family="Inter, Helvetica, Arial, sans-serif" font-size="11.00" fill="#e6edf3">(Action Recognition)</text>
</g>
<!-- realsense&#45;&gt;cv_node -->
<g id="edge1" class="edge">
<title>realsense&#45;&gt;cv_node</title>
<path fill="none" stroke="#42a5f5" d="M162,-1024.38C162,-996.02 162,-939.18 162,-906.38"/>
<polygon fill="#42a5f5" stroke="#42a5f5" points="164.45,-905.98 162,-898.98 159.55,-905.98 164.45,-905.98"/>
<text text-anchor="middle" x="194" y="-974.3" font-family="Inter, Helvetica, Arial, sans-serif" font-size="9.00" fill="#42a5f5">USB 3.0</text>
<text text-anchor="middle" x="194" y="-964.3" font-family="Inter, Helvetica, Arial, sans-serif" font-size="9.00" fill="#42a5f5">(RGB 960x540</text>
<text text-anchor="middle" x="194" y="-954.3" font-family="Inter, Helvetica, Arial, sans-serif" font-size="9.00" fill="#42a5f5">Depth 640x480</text>
<text text-anchor="middle" x="194" y="-944.3" font-family="Inter, Helvetica, Arial, sans-serif" font-size="9.00" fill="#42a5f5">@30fps)</text>
</g>
<!-- teensy -->
<g id="node2" class="node">
<title>teensy</title>
<polygon fill="#1a1e28" stroke="#3a4250" stroke-width="1.5" points="762,-614.5 656,-614.5 652,-610.5 652,-578.5 758,-578.5 762,-582.5 762,-614.5"/>
<polyline fill="none" stroke="#3a4250" stroke-width="1.5" points="758,-610.5 652,-610.5 "/>
<polyline fill="none" stroke="#3a4250" stroke-width="1.5" points="758,-610.5 758,-578.5 "/>
<polyline fill="none" stroke="#3a4250" stroke-width="1.5" points="758,-610.5 762,-614.5 "/>
<text text-anchor="middle" x="707" y="-599.7" font-family="Inter, Helvetica, Arial, sans-serif" font-size="11.00" fill="#e6edf3">Teensy 4.1</text>
<text text-anchor="middle" x="707" y="-587.7" font-family="Inter, Helvetica, Arial, sans-serif" font-size="11.00" fill="#e6edf3">(IMU Pads + Arms)</text>
</g>
<!-- imu_node -->
<g id="node7" class="node">
<title>imu_node</title>
<path fill="#1e2832" stroke="#ff6b35" stroke-width="2" d="M880.5,-469.88C880.5,-469.88 803.5,-469.88 803.5,-469.88 797.5,-469.88 791.5,-463.88 791.5,-457.88 791.5,-457.88 791.5,-445.88 791.5,-445.88 791.5,-439.88 797.5,-433.88 803.5,-433.88 803.5,-433.88 880.5,-433.88 880.5,-433.88 886.5,-433.88 892.5,-439.88 892.5,-445.88 892.5,-445.88 892.5,-457.88 892.5,-457.88 892.5,-463.88 886.5,-469.88 880.5,-469.88"/>
<text text-anchor="middle" x="842" y="-455.07" font-family="Inter, Helvetica, Arial, sans-serif" font-size="11.00" fill="#e6edf3">imu_node</text>
<text text-anchor="middle" x="842" y="-443.07" font-family="Inter, Helvetica, Arial, sans-serif" font-size="11.00" fill="#e6edf3">(IMU Processing)</text>
</g>
<!-- teensy&#45;&gt;imu_node -->
<g id="edge2" class="edge">
<title>teensy&#45;&gt;imu_node</title>
<path fill="none" stroke="#42a5f5" d="M713.35,-578.42C720.38,-561.14 733.01,-534.36 750,-515.5 764.97,-498.88 785.22,-484.48 802.91,-473.7"/>
<polygon fill="#42a5f5" stroke="#42a5f5" points="804.54,-475.58 809.29,-469.89 802.03,-471.37 804.54,-475.58"/>
<text text-anchor="middle" x="782" y="-528.3" font-family="Inter, Helvetica, Arial, sans-serif" font-size="9.00" fill="#42a5f5">micro&#45;ROS</text>
<text text-anchor="middle" x="782" y="-518.3" font-family="Inter, Helvetica, Arial, sans-serif" font-size="9.00" fill="#42a5f5">(Serial 115200)</text>
</g>
<!-- robot_node -->
<g id="node15" class="node">
<title>robot_node</title>
<path fill="#1e2832" stroke="#ff6b35" stroke-width="2" d="M516,-180.62C516,-180.62 454,-180.62 454,-180.62 448,-180.62 442,-174.62 442,-168.62 442,-168.62 442,-156.62 442,-156.62 442,-150.62 448,-144.62 454,-144.62 454,-144.62 516,-144.62 516,-144.62 522,-144.62 528,-150.62 528,-156.62 528,-156.62 528,-168.62 528,-168.62 528,-174.62 522,-180.62 516,-180.62"/>
<text text-anchor="middle" x="485" y="-165.82" font-family="Inter, Helvetica, Arial, sans-serif" font-size="11.00" fill="#e6edf3">robot_node</text>
<text text-anchor="middle" x="485" y="-153.82" font-family="Inter, Helvetica, Arial, sans-serif" font-size="11.00" fill="#e6edf3">(Motor Bridge)</text>
</g>
<!-- teensy&#45;&gt;robot_node -->
<g id="edge3" class="edge">
<title>teensy&#45;&gt;robot_node</title>
<path fill="none" stroke="#42a5f5" d="M703.38,-578.14C696.64,-547.54 680.66,-482.38 657,-431.25 612.16,-334.35 536.96,-231.18 502.82,-186.47"/>
<polygon fill="#42a5f5" stroke="#42a5f5" points="504.68,-184.87 498.48,-180.81 500.79,-187.85 504.68,-184.87"/>
<text text-anchor="middle" x="668.5" y="-376.05" font-family="Inter, Helvetica, Arial, sans-serif" font-size="9.00" fill="#42a5f5">motor_feedback</text>
</g>
<!-- robot_arm -->
<g id="node3" class="node">
<title>robot_arm</title>
<polygon fill="#1a1e28" stroke="#3a4250" stroke-width="1.5" points="522,-36 452,-36 448,-32 448,0 518,0 522,-4 522,-36"/>
<polyline fill="none" stroke="#3a4250" stroke-width="1.5" points="518,-32 448,-32 "/>
<polyline fill="none" stroke="#3a4250" stroke-width="1.5" points="518,-32 518,0 "/>
<polyline fill="none" stroke="#3a4250" stroke-width="1.5" points="518,-32 522,-36 "/>
<text text-anchor="middle" x="485" y="-21.2" font-family="Inter, Helvetica, Arial, sans-serif" font-size="11.00" fill="#e6edf3">Robot Arm</text>
<text text-anchor="middle" x="485" y="-9.2" font-family="Inter, Helvetica, Arial, sans-serif" font-size="11.00" fill="#e6edf3">(Dynamixel)</text>
</g>
<!-- display -->
<g id="node4" class="node">
<title>display</title>
<polygon fill="#1a1e28" stroke="#3a4250" stroke-width="1.5" points="985.5,-180.62 898.5,-180.62 894.5,-176.62 894.5,-144.62 981.5,-144.62 985.5,-148.62 985.5,-180.62"/>
<polyline fill="none" stroke="#3a4250" stroke-width="1.5" points="981.5,-176.62 894.5,-176.62 "/>
<polyline fill="none" stroke="#3a4250" stroke-width="1.5" points="981.5,-176.62 981.5,-144.62 "/>
<polyline fill="none" stroke="#3a4250" stroke-width="1.5" points="981.5,-176.62 985.5,-180.62 "/>
<text text-anchor="middle" x="940" y="-165.82" font-family="Inter, Helvetica, Arial, sans-serif" font-size="11.00" fill="#e6edf3">7&quot; Touchscreen</text>
<text text-anchor="middle" x="940" y="-153.82" font-family="Inter, Helvetica, Arial, sans-serif" font-size="11.00" fill="#e6edf3">(1024x600)</text>
</g>
<!-- phone -->
<g id="node5" class="node">
<title>phone</title>
<polygon fill="#1a1e28" stroke="#3a4250" stroke-width="1.5" points="1530,-756.5 1436,-756.5 1432,-752.5 1432,-720.5 1526,-720.5 1530,-724.5 1530,-756.5"/>
<polyline fill="none" stroke="#3a4250" stroke-width="1.5" points="1526,-752.5 1432,-752.5 "/>
<polyline fill="none" stroke="#3a4250" stroke-width="1.5" points="1526,-752.5 1526,-720.5 "/>
<polyline fill="none" stroke="#3a4250" stroke-width="1.5" points="1526,-752.5 1530,-756.5 "/>
<text text-anchor="middle" x="1481" y="-741.7" font-family="Inter, Helvetica, Arial, sans-serif" font-size="11.00" fill="#e6edf3">Phone</text>
<text text-anchor="middle" x="1481" y="-729.7" font-family="Inter, Helvetica, Arial, sans-serif" font-size="11.00" fill="#e6edf3">(Vue Dashboard)</text>
</g>
<!-- dashboard -->
<g id="node17" class="node">
<title>dashboard</title>
<path fill="#231810" stroke="#00e676" stroke-width="2" d="M1513.5,-614.5C1513.5,-614.5 1448.5,-614.5 1448.5,-614.5 1442.5,-614.5 1436.5,-608.5 1436.5,-602.5 1436.5,-602.5 1436.5,-590.5 1436.5,-590.5 1436.5,-584.5 1442.5,-578.5 1448.5,-578.5 1448.5,-578.5 1513.5,-578.5 1513.5,-578.5 1519.5,-578.5 1525.5,-584.5 1525.5,-590.5 1525.5,-590.5 1525.5,-602.5 1525.5,-602.5 1525.5,-608.5 1519.5,-614.5 1513.5,-614.5"/>
<text text-anchor="middle" x="1481" y="-599.7" font-family="Inter, Helvetica, Arial, sans-serif" font-size="11.00" fill="#e6edf3">Dashboard API</text>
<text text-anchor="middle" x="1481" y="-587.7" font-family="Inter, Helvetica, Arial, sans-serif" font-size="11.00" fill="#e6edf3">(FastAPI)</text>
</g>
<!-- phone&#45;&gt;dashboard -->
<g id="edge29" class="edge">
<title>phone&#45;&gt;dashboard</title>
<path fill="none" stroke="#00e676" d="M1481,-720.33C1481,-695.67 1481,-650.08 1481,-621.91"/>
<polygon fill="#00e676" stroke="#00e676" points="1483.45,-621.81 1481,-614.81 1478.55,-621.81 1483.45,-621.81"/>
<text text-anchor="middle" x="1521.5" y="-670.3" font-family="Inter, Helvetica, Arial, sans-serif" font-size="9.00" fill="#00e676">HTTP + WebSocket</text>
<text text-anchor="middle" x="1521.5" y="-660.3" font-family="Inter, Helvetica, Arial, sans-serif" font-size="9.00" fill="#00e676">(WiFi)</text>
</g>
<!-- punch_processor -->
<g id="node8" class="node">
<title>punch_processor</title>
<path fill="#1e2832" stroke="#ff6b35" stroke-width="2" d="M583.5,-756.5C583.5,-756.5 506.5,-756.5 506.5,-756.5 500.5,-756.5 494.5,-750.5 494.5,-744.5 494.5,-744.5 494.5,-732.5 494.5,-732.5 494.5,-726.5 500.5,-720.5 506.5,-720.5 506.5,-720.5 583.5,-720.5 583.5,-720.5 589.5,-720.5 595.5,-726.5 595.5,-732.5 595.5,-732.5 595.5,-744.5 595.5,-744.5 595.5,-750.5 589.5,-756.5 583.5,-756.5"/>
<text text-anchor="middle" x="545" y="-741.7" font-family="Inter, Helvetica, Arial, sans-serif" font-size="11.00" fill="#e6edf3">punch_processor</text>
<text text-anchor="middle" x="545" y="-729.7" font-family="Inter, Helvetica, Arial, sans-serif" font-size="11.00" fill="#e6edf3">(CV+IMU Fusion)</text>
</g>
<!-- cv_node&#45;&gt;punch_processor -->
<g id="edge5" class="edge">
<title>cv_node&#45;&gt;punch_processor</title>
<path fill="none" stroke="#ff6b35" d="M208.58,-862.47C280.08,-836.34 416.5,-786.47 491.8,-758.95"/>
<polygon fill="#ff6b35" stroke="#ff6b35" points="492.71,-761.22 498.44,-756.52 491.03,-756.62 492.71,-761.22"/>
<text text-anchor="middle" x="413" y="-812.3" font-family="Inter, Helvetica, Arial, sans-serif" font-size="9.00" fill="#ff9800">/cv/detection</text>
<text text-anchor="middle" x="413" y="-802.3" font-family="Inter, Helvetica, Arial, sans-serif" font-size="9.00" fill="#ff9800">(PunchDetection)</text>
</g>
<!-- session_manager -->
<g id="node9" class="node">
<title>session_manager</title>
<path fill="#1e2832" stroke="#ff6b35" stroke-width="2" d="M381.5,-614.5C381.5,-614.5 298.5,-614.5 298.5,-614.5 292.5,-614.5 286.5,-608.5 286.5,-602.5 286.5,-602.5 286.5,-590.5 286.5,-590.5 286.5,-584.5 292.5,-578.5 298.5,-578.5 298.5,-578.5 381.5,-578.5 381.5,-578.5 387.5,-578.5 393.5,-584.5 393.5,-590.5 393.5,-590.5 393.5,-602.5 393.5,-602.5 393.5,-608.5 387.5,-614.5 381.5,-614.5"/>
<text text-anchor="middle" x="340" y="-599.7" font-family="Inter, Helvetica, Arial, sans-serif" font-size="11.00" fill="#e6edf3">session_manager</text>
<text text-anchor="middle" x="340" y="-587.7" font-family="Inter, Helvetica, Arial, sans-serif" font-size="11.00" fill="#e6edf3">(Session Lifecycle)</text>
</g>
<!-- cv_node&#45;&gt;session_manager -->
<g id="edge6" class="edge">
<title>cv_node&#45;&gt;session_manager</title>
<path fill="none" stroke="#ff6b35" d="M133.41,-862.32C90.77,-834.36 18.42,-776.48 47,-720.5 68.71,-677.98 91.12,-678.48 134,-657.5 180.43,-634.78 237.06,-619.06 279.18,-609.43"/>
<polygon fill="#ff6b35" stroke="#ff6b35" points="279.79,-611.8 286.08,-607.88 278.71,-607.02 279.79,-611.8"/>
<text text-anchor="middle" x="82" y="-741.3" font-family="Inter, Helvetica, Arial, sans-serif" font-size="9.00" fill="#ff9800">/cv/user_tracking</text>
<text text-anchor="middle" x="82" y="-731.3" font-family="Inter, Helvetica, Arial, sans-serif" font-size="9.00" fill="#ff9800">(UserTracking)</text>
</g>
<!-- cv_node&#45;&gt;session_manager -->
<g id="edge7" class="edge">
<title>cv_node&#45;&gt;session_manager</title>
<path fill="none" stroke="#ff6b35" stroke-dasharray="5,2" d="M172.87,-862.28C203.47,-813.81 290.38,-676.11 325.26,-620.86"/>
<polygon fill="#ff6b35" stroke="#ff6b35" points="327.38,-622.08 329.05,-614.85 323.24,-619.46 327.38,-622.08"/>
<text text-anchor="middle" x="301.5" y="-741.3" font-family="Inter, Helvetica, Arial, sans-serif" font-size="9.00" fill="#ff9800">/cv/person_direction</text>
<text text-anchor="middle" x="301.5" y="-731.3" font-family="Inter, Helvetica, Arial, sans-serif" font-size="9.00" fill="#ff9800">(String)</text>
</g>
<!-- imu_node&#45;&gt;punch_processor -->
<g id="edge8" class="edge">
<title>imu_node&#45;&gt;punch_processor</title>
<path fill="none" stroke="#26a69a" d="M839.95,-469.88C835.19,-502.21 820.53,-573 780,-614.5 730.12,-665.58 654.46,-699.9 602.55,-719.03"/>
<polygon fill="#26a69a" stroke="#26a69a" points="601.45,-716.82 595.7,-721.51 603.12,-721.43 601.45,-716.82"/>
<text text-anchor="middle" x="842.5" y="-599.3" font-family="Inter, Helvetica, Arial, sans-serif" font-size="9.00" fill="#26a69a">/imu/punch_event</text>
<text text-anchor="middle" x="842.5" y="-589.3" font-family="Inter, Helvetica, Arial, sans-serif" font-size="9.00" fill="#26a69a">(PunchEvent)</text>
</g>
<!-- imu_node&#45;&gt;punch_processor -->
<g id="edge9" class="edge">
<title>imu_node&#45;&gt;punch_processor</title>
<path fill="none" stroke="#26a69a" d="M892.65,-467.37C916.29,-476.96 942.2,-492.18 956,-515.5 983.18,-561.44 931.13,-583.05 888,-614.5 800.04,-678.64 675.34,-712.13 603.04,-727.19"/>
<polygon fill="#26a69a" stroke="#26a69a" points="602.15,-724.87 595.78,-728.68 603.13,-729.68 602.15,-724.87"/>
<text text-anchor="middle" x="974" y="-599.3" font-family="Inter, Helvetica, Arial, sans-serif" font-size="9.00" fill="#26a69a">/imu/arm_event</text>
<text text-anchor="middle" x="974" y="-589.3" font-family="Inter, Helvetica, Arial, sans-serif" font-size="9.00" fill="#26a69a">(ArmStrikeEvent)</text>
</g>
<!-- gui -->
<g id="node16" class="node">
<title>gui</title>
<path fill="#231810" stroke="#00e676" stroke-width="2" d="M972.5,-325.25C972.5,-325.25 907.5,-325.25 907.5,-325.25 901.5,-325.25 895.5,-319.25 895.5,-313.25 895.5,-313.25 895.5,-301.25 895.5,-301.25 895.5,-295.25 901.5,-289.25 907.5,-289.25 907.5,-289.25 972.5,-289.25 972.5,-289.25 978.5,-289.25 984.5,-295.25 984.5,-301.25 984.5,-301.25 984.5,-313.25 984.5,-313.25 984.5,-319.25 978.5,-325.25 972.5,-325.25"/>
<text text-anchor="middle" x="940" y="-310.45" font-family="Inter, Helvetica, Arial, sans-serif" font-size="11.00" fill="#e6edf3">BoxBunny GUI</text>
<text text-anchor="middle" x="940" y="-298.45" font-family="Inter, Helvetica, Arial, sans-serif" font-size="11.00" fill="#e6edf3">(PySide6)</text>
</g>
<!-- imu_node&#45;&gt;gui -->
<g id="edge10" class="edge">
<title>imu_node&#45;&gt;gui</title>
<path fill="none" stroke="#26a69a" d="M853.82,-433.67C871.41,-408.08 904.49,-359.93 924.15,-331.31"/>
<polygon fill="#26a69a" stroke="#26a69a" points="926.19,-332.67 928.14,-325.51 922.15,-329.9 926.19,-332.67"/>
<text text-anchor="middle" x="929.5" y="-381.05" font-family="Inter, Helvetica, Arial, sans-serif" font-size="9.00" fill="#26a69a">/imu/nav_event</text>
<text text-anchor="middle" x="929.5" y="-371.05" font-family="Inter, Helvetica, Arial, sans-serif" font-size="9.00" fill="#26a69a">(NavCommand)</text>
</g>
<!-- punch_processor&#45;&gt;session_manager -->
<g id="edge11" class="edge">
<title>punch_processor&#45;&gt;session_manager</title>
<path fill="none" stroke="#ffd54f" d="M512.4,-720.3C491.52,-708.9 464.11,-693.19 441,-677.5 414.11,-659.24 385.2,-635.92 365.23,-619.18"/>
<polygon fill="#ffd54f" stroke="#ffd54f" points="366.77,-617.28 359.84,-614.65 363.62,-621.03 366.77,-617.28"/>
<text text-anchor="middle" x="479" y="-670.3" font-family="Inter, Helvetica, Arial, sans-serif" font-size="9.00" fill="#ffd54f">/punch/confirmed</text>
<text text-anchor="middle" x="479" y="-660.3" font-family="Inter, Helvetica, Arial, sans-serif" font-size="9.00" fill="#ffd54f">(ConfirmedPunch)</text>
</g>
<!-- punch_processor&#45;&gt;session_manager -->
<g id="edge12" class="edge">
<title>punch_processor&#45;&gt;session_manager</title>
<path fill="none" stroke="#ffd54f" d="M494.07,-729.27C440.54,-719.49 361.56,-701.42 343,-677.5 330.92,-661.93 331.3,-639.08 334.04,-621.78"/>
<polygon fill="#ffd54f" stroke="#ffd54f" points="336.48,-622.07 335.33,-614.74 331.66,-621.18 336.48,-622.07"/>
<text text-anchor="middle" x="375" y="-670.3" font-family="Inter, Helvetica, Arial, sans-serif" font-size="9.00" fill="#ffd54f">/punch/defense</text>
<text text-anchor="middle" x="375" y="-660.3" font-family="Inter, Helvetica, Arial, sans-serif" font-size="9.00" fill="#ffd54f">(DefenseEvent)</text>
</g>
<!-- drill_manager -->
<g id="node10" class="node">
<title>drill_manager</title>
<path fill="#1e2832" stroke="#ff6b35" stroke-width="2" d="M1182.5,-614.5C1182.5,-614.5 1097.5,-614.5 1097.5,-614.5 1091.5,-614.5 1085.5,-608.5 1085.5,-602.5 1085.5,-602.5 1085.5,-590.5 1085.5,-590.5 1085.5,-584.5 1091.5,-578.5 1097.5,-578.5 1097.5,-578.5 1182.5,-578.5 1182.5,-578.5 1188.5,-578.5 1194.5,-584.5 1194.5,-590.5 1194.5,-590.5 1194.5,-602.5 1194.5,-602.5 1194.5,-608.5 1188.5,-614.5 1182.5,-614.5"/>
<text text-anchor="middle" x="1140" y="-599.7" font-family="Inter, Helvetica, Arial, sans-serif" font-size="11.00" fill="#e6edf3">drill_manager</text>
<text text-anchor="middle" x="1140" y="-587.7" font-family="Inter, Helvetica, Arial, sans-serif" font-size="11.00" fill="#e6edf3">(Combo Validation)</text>
</g>
<!-- punch_processor&#45;&gt;drill_manager -->
<g id="edge13" class="edge">
<title>punch_processor&#45;&gt;drill_manager</title>
<path fill="none" stroke="#ffd54f" stroke-dasharray="5,2" d="M595.77,-737.63C682.53,-736.39 863.79,-727.41 1007,-677.5 1046.1,-663.87 1086.19,-637.78 1111.98,-619.09"/>
<polygon fill="#ffd54f" stroke="#ffd54f" points="1113.71,-620.87 1117.9,-614.75 1110.81,-616.92 1113.71,-620.87"/>
<text text-anchor="middle" x="1085.5" y="-665.3" font-family="Inter, Helvetica, Arial, sans-serif" font-size="9.00" fill="#ffd54f">/punch/confirmed</text>
</g>
<!-- sparring_engine -->
<g id="node11" class="node">
<title>sparring_engine</title>
<path fill="#1e2832" stroke="#ff6b35" stroke-width="2" d="M82,-469.88C82,-469.88 12,-469.88 12,-469.88 6,-469.88 0,-463.88 0,-457.88 0,-457.88 0,-445.88 0,-445.88 0,-439.88 6,-433.88 12,-433.88 12,-433.88 82,-433.88 82,-433.88 88,-433.88 94,-439.88 94,-445.88 94,-445.88 94,-457.88 94,-457.88 94,-463.88 88,-469.88 82,-469.88"/>
<text text-anchor="middle" x="47" y="-455.07" font-family="Inter, Helvetica, Arial, sans-serif" font-size="11.00" fill="#e6edf3">sparring_engine</text>
<text text-anchor="middle" x="47" y="-443.07" font-family="Inter, Helvetica, Arial, sans-serif" font-size="11.00" fill="#e6edf3">(Sparring AI)</text>
</g>
<!-- punch_processor&#45;&gt;sparring_engine -->
<g id="edge16" class="edge">
<title>punch_processor&#45;&gt;sparring_engine</title>
<path fill="none" stroke="#ffd54f" stroke-dasharray="5,2" d="M494.4,-728.54C422.93,-714 290.72,-680.08 197,-614.5 140.31,-574.83 88.89,-510.61 63.57,-476.28"/>
<polygon fill="#ffd54f" stroke="#ffd54f" points="65.25,-474.43 59.15,-470.23 61.3,-477.33 65.25,-474.43"/>
<text text-anchor="middle" x="232.5" y="-594.3" font-family="Inter, Helvetica, Arial, sans-serif" font-size="9.00" fill="#ffd54f">/punch/confirmed</text>
</g>
<!-- analytics_node -->
<g id="node13" class="node">
<title>analytics_node</title>
<path fill="#1e2832" stroke="#ff6b35" stroke-width="2" d="M627,-469.88C627,-469.88 563,-469.88 563,-469.88 557,-469.88 551,-463.88 551,-457.88 551,-457.88 551,-445.88 551,-445.88 551,-439.88 557,-433.88 563,-433.88 563,-433.88 627,-433.88 627,-433.88 633,-433.88 639,-439.88 639,-445.88 639,-445.88 639,-457.88 639,-457.88 639,-463.88 633,-469.88 627,-469.88"/>
<text text-anchor="middle" x="595" y="-455.07" font-family="Inter, Helvetica, Arial, sans-serif" font-size="11.00" fill="#e6edf3">analytics_node</text>
<text text-anchor="middle" x="595" y="-443.07" font-family="Inter, Helvetica, Arial, sans-serif" font-size="11.00" fill="#e6edf3">(Statistics)</text>
</g>
<!-- punch_processor&#45;&gt;analytics_node -->
<g id="edge14" class="edge">
<title>punch_processor&#45;&gt;analytics_node</title>
<path fill="none" stroke="#ffd54f" stroke-dasharray="5,2" d="M545.98,-720.26C548.43,-682.59 556,-590.33 575,-515.5 578.28,-502.58 582.73,-488.42 586.6,-476.84"/>
<polygon fill="#ffd54f" stroke="#ffd54f" points="588.99,-477.41 588.92,-469.99 584.35,-475.83 588.99,-477.41"/>
<text text-anchor="middle" x="597.5" y="-594.3" font-family="Inter, Helvetica, Arial, sans-serif" font-size="9.00" fill="#ffd54f">/punch/confirmed</text>
</g>
<!-- llm_node -->
<g id="node14" class="node">
<title>llm_node</title>
<path fill="#1e2832" stroke="#ff6b35" stroke-width="2" d="M1348,-469.88C1348,-469.88 1248,-469.88 1248,-469.88 1242,-469.88 1236,-463.88 1236,-457.88 1236,-457.88 1236,-445.88 1236,-445.88 1236,-439.88 1242,-433.88 1248,-433.88 1248,-433.88 1348,-433.88 1348,-433.88 1354,-433.88 1360,-439.88 1360,-445.88 1360,-445.88 1360,-457.88 1360,-457.88 1360,-463.88 1354,-469.88 1348,-469.88"/>
<text text-anchor="middle" x="1298" y="-455.07" font-family="Inter, Helvetica, Arial, sans-serif" font-size="11.00" fill="#e6edf3">llm_node</text>
<text text-anchor="middle" x="1298" y="-443.07" font-family="Inter, Helvetica, Arial, sans-serif" font-size="11.00" fill="#e6edf3">(AI Coach / Qwen 2.5)</text>
</g>
<!-- punch_processor&#45;&gt;llm_node -->
<g id="edge15" class="edge">
<title>punch_processor&#45;&gt;llm_node</title>
<path fill="none" stroke="#ffd54f" stroke-dasharray="5,2" d="M595.63,-735.84C719.21,-731.24 1033.24,-716 1130,-677.5 1219.67,-641.82 1271.19,-526.77 1289.88,-476.62"/>
<polygon fill="#ffd54f" stroke="#ffd54f" points="1292.21,-477.4 1292.3,-469.98 1287.6,-475.72 1292.21,-477.4"/>
<text text-anchor="middle" x="1275.5" y="-594.3" font-family="Inter, Helvetica, Arial, sans-serif" font-size="9.00" fill="#ffd54f">/punch/confirmed</text>
</g>
<!-- session_manager&#45;&gt;imu_node -->
<g id="edge20" class="edge">
<title>session_manager&#45;&gt;imu_node</title>
<path fill="none" stroke="#ce93d8" stroke-dasharray="5,2" d="M393.72,-580.24C488.94,-553.18 686.49,-497.06 784.41,-469.24"/>
<polygon fill="#ce93d8" stroke="#ce93d8" points="785.22,-471.55 791.28,-467.28 783.88,-466.84 785.22,-471.55"/>
<text text-anchor="middle" x="650" y="-523.3" font-family="Inter, Helvetica, Arial, sans-serif" font-size="9.00" fill="#ce93d8">/session/state</text>
</g>
<!-- session_manager&#45;&gt;sparring_engine -->
<g id="edge18" class="edge">
<title>session_manager&#45;&gt;sparring_engine</title>
<path fill="none" stroke="#ce93d8" stroke-dasharray="5,2" d="M286.25,-583.24C248.26,-573.35 196.86,-557.47 155,-535.5 123.34,-518.88 91.34,-493 70.48,-474.64"/>
<polygon fill="#ce93d8" stroke="#ce93d8" points="72.02,-472.73 65.16,-469.91 68.76,-476.39 72.02,-472.73"/>
<text text-anchor="middle" x="183" y="-523.3" font-family="Inter, Helvetica, Arial, sans-serif" font-size="9.00" fill="#ce93d8">/session/state</text>
</g>
<!-- free_engine -->
<g id="node12" class="node">
<title>free_engine</title>
<path fill="#1e2832" stroke="#ff6b35" stroke-width="2" d="M233.5,-469.88C233.5,-469.88 142.5,-469.88 142.5,-469.88 136.5,-469.88 130.5,-463.88 130.5,-457.88 130.5,-457.88 130.5,-445.88 130.5,-445.88 130.5,-439.88 136.5,-433.88 142.5,-433.88 142.5,-433.88 233.5,-433.88 233.5,-433.88 239.5,-433.88 245.5,-439.88 245.5,-445.88 245.5,-445.88 245.5,-457.88 245.5,-457.88 245.5,-463.88 239.5,-469.88 233.5,-469.88"/>
<text text-anchor="middle" x="188" y="-455.07" font-family="Inter, Helvetica, Arial, sans-serif" font-size="11.00" fill="#e6edf3">free_training_engine</text>
<text text-anchor="middle" x="188" y="-443.07" font-family="Inter, Helvetica, Arial, sans-serif" font-size="11.00" fill="#e6edf3">(Reactive Mode)</text>
</g>
<!-- session_manager&#45;&gt;free_engine -->
<g id="edge19" class="edge">
<title>session_manager&#45;&gt;free_engine</title>
<path fill="none" stroke="#ce93d8" stroke-dasharray="5,2" d="M298.22,-578.44C277.1,-568.29 252.18,-553.81 234,-535.5 217.35,-518.74 204.89,-494.71 197.16,-476.89"/>
<polygon fill="#ce93d8" stroke="#ce93d8" points="199.3,-475.66 194.34,-470.15 194.78,-477.55 199.3,-475.66"/>
<text text-anchor="middle" x="262" y="-523.3" font-family="Inter, Helvetica, Arial, sans-serif" font-size="9.00" fill="#ce93d8">/session/state</text>
</g>
<!-- session_manager&#45;&gt;analytics_node -->
<g id="edge21" class="edge">
<title>session_manager&#45;&gt;analytics_node</title>
<path fill="none" stroke="#ce93d8" d="M353.08,-578.26C367.47,-560.34 392.16,-532.58 419,-515.5 440.1,-502.07 499.67,-482.09 543.69,-468.33"/>
<polygon fill="#ce93d8" stroke="#ce93d8" points="544.66,-470.59 550.61,-466.17 543.2,-465.91 544.66,-470.59"/>
<text text-anchor="middle" x="471.5" y="-528.3" font-family="Inter, Helvetica, Arial, sans-serif" font-size="9.00" fill="#ce93d8">/punch/session_summary</text>
<text text-anchor="middle" x="471.5" y="-518.3" font-family="Inter, Helvetica, Arial, sans-serif" font-size="9.00" fill="#ce93d8">(SessionPunchSummary)</text>
</g>
<!-- session_manager&#45;&gt;gui -->
<g id="edge17" class="edge">
<title>session_manager&#45;&gt;gui</title>
<path fill="none" stroke="#ce93d8" d="M335.94,-578.02C329.6,-546.65 320.48,-479.59 345,-431.25 365.16,-391.51 381.91,-385.5 423,-368.25 506.16,-333.34 773.97,-316.39 887.91,-310.62"/>
<polygon fill="#ce93d8" stroke="#ce93d8" points="888.32,-313.05 895.19,-310.25 888.08,-308.16 888.32,-313.05"/>
<text text-anchor="middle" x="375.5" y="-454.68" font-family="Inter, Helvetica, Arial, sans-serif" font-size="9.00" fill="#ce93d8">/session/state</text>
<text text-anchor="middle" x="375.5" y="-444.68" font-family="Inter, Helvetica, Arial, sans-serif" font-size="9.00" fill="#ce93d8">(SessionState)</text>
</g>
<!-- user_db -->
<g id="node19" class="node">
<title>user_db</title>
<path fill="#1c1430" stroke="#ab47bc" stroke-width="1.5" d="M1199.5,-468.85C1199.5,-470.93 1181.35,-472.63 1159,-472.63 1136.65,-472.63 1118.5,-470.93 1118.5,-468.85 1118.5,-468.85 1118.5,-434.9 1118.5,-434.9 1118.5,-432.82 1136.65,-431.12 1159,-431.12 1181.35,-431.12 1199.5,-432.82 1199.5,-434.9 1199.5,-434.9 1199.5,-468.85 1199.5,-468.85"/>
<path fill="none" stroke="#ab47bc" stroke-width="1.5" d="M1199.5,-468.85C1199.5,-466.77 1181.35,-465.08 1159,-465.08 1136.65,-465.08 1118.5,-466.77 1118.5,-468.85"/>
<text text-anchor="middle" x="1159" y="-454.88" font-family="Inter, Helvetica, Arial, sans-serif" font-size="10.00" fill="#e6edf3">Per&#45;User DB</text>
<text text-anchor="middle" x="1159" y="-443.88" font-family="Inter, Helvetica, Arial, sans-serif" font-size="10.00" fill="#e6edf3">(sessions, XP)</text>
</g>
<!-- session_manager&#45;&gt;user_db -->
<g id="edge32" class="edge">
<title>session_manager&#45;&gt;user_db</title>
<path fill="none" stroke="#ab47bc" stroke-dasharray="5,2" d="M393.73,-589.56C501.67,-577.51 741.49,-550.1 823,-535.5 943.44,-513.93 972.63,-503.47 1091,-472.5 1097.69,-470.75 1104.72,-468.82 1111.62,-466.88"/>
<polygon fill="#ab47bc" stroke="#ab47bc" points="1112.4,-469.2 1118.46,-464.94 1111.06,-464.49 1112.4,-469.2"/>
<text text-anchor="middle" x="948.5" y="-523.3" font-family="Inter, Helvetica, Arial, sans-serif" font-size="9.00" fill="#ab47bc">save session</text>
</g>
<!-- drill_manager&#45;&gt;gui -->
<g id="edge24" class="edge">
<title>drill_manager&#45;&gt;gui</title>
<path fill="none" stroke="#81c784" d="M1124.64,-578.17C1104.31,-554.88 1067.78,-511.84 1040,-472.5 1006.02,-424.38 971.38,-364.56 953.13,-332.03"/>
<polygon fill="#81c784" stroke="#81c784" points="955.04,-330.44 949.49,-325.52 950.76,-332.83 955.04,-330.44"/>
<text text-anchor="middle" x="1070" y="-454.68" font-family="Inter, Helvetica, Arial, sans-serif" font-size="9.00" fill="#81c784">/drill/progress</text>
<text text-anchor="middle" x="1070" y="-444.68" font-family="Inter, Helvetica, Arial, sans-serif" font-size="9.00" fill="#81c784">(DrillProgress)</text>
</g>
<!-- sparring_engine&#45;&gt;robot_node -->
<g id="edge22" class="edge">
<title>sparring_engine&#45;&gt;robot_node</title>
<path fill="none" stroke="#ff5252" d="M63.16,-433.72C94.64,-400.98 167.42,-328.64 239,-281.25 302.65,-239.11 383.73,-203.38 435.02,-182.72"/>
<polygon fill="#ff5252" stroke="#ff5252" points="436.15,-184.9 441.74,-180.02 434.33,-180.35 436.15,-184.9"/>
<text text-anchor="middle" x="276" y="-310.05" font-family="Inter, Helvetica, Arial, sans-serif" font-size="9.00" fill="#ff5252">/robot/command</text>
<text text-anchor="middle" x="276" y="-300.05" font-family="Inter, Helvetica, Arial, sans-serif" font-size="9.00" fill="#ff5252">(RobotCommand)</text>
</g>
<!-- free_engine&#45;&gt;robot_node -->
<g id="edge23" class="edge">
<title>free_engine&#45;&gt;robot_node</title>
<path fill="none" stroke="#ff5252" d="M205.69,-433.77C256.86,-384.27 405.04,-240.96 462.17,-185.71"/>
<polygon fill="#ff5252" stroke="#ff5252" points="464.08,-187.27 467.4,-180.64 460.67,-183.75 464.08,-187.27"/>
<text text-anchor="middle" x="395.5" y="-305.05" font-family="Inter, Helvetica, Arial, sans-serif" font-size="9.00" fill="#ff5252">/robot/command</text>
</g>
<!-- llm_node&#45;&gt;gui -->
<g id="edge25" class="edge">
<title>llm_node&#45;&gt;gui</title>
<path fill="none" stroke="#64b5f6" d="M1255.17,-433.81C1188.47,-407.24 1060.11,-356.1 989.52,-327.98"/>
<polygon fill="#64b5f6" stroke="#64b5f6" points="990.29,-325.65 982.88,-325.33 988.47,-330.2 990.29,-325.65"/>
<text text-anchor="middle" x="1164" y="-381.05" font-family="Inter, Helvetica, Arial, sans-serif" font-size="9.00" fill="#64b5f6">/coach/tip</text>
<text text-anchor="middle" x="1164" y="-371.05" font-family="Inter, Helvetica, Arial, sans-serif" font-size="9.00" fill="#64b5f6">(CoachTip)</text>
</g>
<!-- robot_node&#45;&gt;robot_arm -->
<g id="edge4" class="edge">
<title>robot_node&#45;&gt;robot_arm</title>
<path fill="none" stroke="#ff5252" d="M485,-144.42C485,-119.26 485,-72.29 485,-43.51"/>
<polygon fill="#ff5252" stroke="#ff5252" points="487.45,-43.26 485,-36.26 482.55,-43.26 487.45,-43.26"/>
<text text-anchor="middle" x="522" y="-91.8" font-family="Inter, Helvetica, Arial, sans-serif" font-size="9.00" fill="#ff5252">motor_commands</text>
<text text-anchor="middle" x="522" y="-81.8" font-family="Inter, Helvetica, Arial, sans-serif" font-size="9.00" fill="#ff5252">(strike_command)</text>
</g>
<!-- gui&#45;&gt;display -->
<g id="edge26" class="edge">
<title>gui&#45;&gt;display</title>
<path fill="none" stroke="#00e676" d="M940,-289.05C940,-263.88 940,-216.91 940,-188.14"/>
<polygon fill="#00e676" stroke="#00e676" points="942.45,-187.89 940,-180.89 937.55,-187.89 942.45,-187.89"/>
<text text-anchor="middle" x="957.5" y="-239.05" font-family="Inter, Helvetica, Arial, sans-serif" font-size="9.00" fill="#00e676">PySide6</text>
<text text-anchor="middle" x="957.5" y="-229.05" font-family="Inter, Helvetica, Arial, sans-serif" font-size="9.00" fill="#00e676">render</text>
</g>
<!-- gui&#45;&gt;session_manager -->
<g id="edge27" class="edge">
<title>gui&#45;&gt;session_manager</title>
<path fill="none" stroke="#00e676" stroke-width="2" d="M895.21,-310.93C807.08,-318.04 607.67,-343.38 469,-431.25 424.6,-459.38 417.81,-473.65 386,-515.5 372.39,-533.4 359.88,-555.73 351.35,-572.24"/>
<polygon fill="#00e676" stroke="#00e676" stroke-width="2" points="349.16,-571.13 348.17,-578.48 353.53,-573.36 349.16,-571.13"/>
<text text-anchor="middle" x="501" y="-459.68" font-family="Inter, Helvetica, Arial, sans-serif" font-size="9.00" fill="#00e676">StartSession /</text>
<text text-anchor="middle" x="501" y="-449.68" font-family="Inter, Helvetica, Arial, sans-serif" font-size="9.00" fill="#00e676">EndSession</text>
<text text-anchor="middle" x="501" y="-439.68" font-family="Inter, Helvetica, Arial, sans-serif" font-size="9.00" fill="#00e676">(ROS Services)</text>
</g>
<!-- gui&#45;&gt;robot_node -->
<g id="edge28" class="edge">
<title>gui&#45;&gt;robot_node</title>
<path fill="none" stroke="#00e676" stroke-dasharray="5,2" d="M896.98,-289.11C853.3,-272.03 783.53,-245.62 722,-226.25 658.16,-206.15 583.32,-187.11 535.08,-175.42"/>
<polygon fill="#00e676" stroke="#00e676" points="535.54,-173.01 528.16,-173.74 534.39,-177.77 535.54,-173.01"/>
<text text-anchor="middle" x="815" y="-239.05" font-family="Inter, Helvetica, Arial, sans-serif" font-size="9.00" fill="#00e676">/robot/height</text>
<text text-anchor="middle" x="815" y="-229.05" font-family="Inter, Helvetica, Arial, sans-serif" font-size="9.00" fill="#00e676">(HeightCommand)</text>
</g>
<!-- main_db -->
<g id="node18" class="node">
<title>main_db</title>
<path fill="#1c1430" stroke="#ab47bc" stroke-width="1.5" d="M1529,-179.6C1529,-181.68 1509.73,-183.38 1486,-183.38 1462.27,-183.38 1443,-181.68 1443,-179.6 1443,-179.6 1443,-145.65 1443,-145.65 1443,-143.57 1462.27,-141.87 1486,-141.87 1509.73,-141.87 1529,-143.57 1529,-145.65 1529,-145.65 1529,-179.6 1529,-179.6"/>
<path fill="none" stroke="#ab47bc" stroke-width="1.5" d="M1529,-179.6C1529,-177.52 1509.73,-175.83 1486,-175.83 1462.27,-175.83 1443,-177.52 1443,-179.6"/>
<text text-anchor="middle" x="1486" y="-165.62" font-family="Inter, Helvetica, Arial, sans-serif" font-size="10.00" fill="#e6edf3">Main DB</text>
<text text-anchor="middle" x="1486" y="-154.62" font-family="Inter, Helvetica, Arial, sans-serif" font-size="10.00" fill="#e6edf3">(users, presets)</text>
</g>
<!-- gui&#45;&gt;main_db -->
<g id="edge33" class="edge">
<title>gui&#45;&gt;main_db</title>
<path fill="none" stroke="#ab47bc" stroke-dasharray="5,2" d="M984.68,-294.58C1085.51,-268.24 1330.15,-204.33 1435.92,-176.71"/>
<polygon fill="#ab47bc" stroke="#ab47bc" points="1436.83,-179 1442.98,-174.86 1435.59,-174.26 1436.83,-179"/>
<text text-anchor="middle" x="1272.5" y="-234.05" font-family="Inter, Helvetica, Arial, sans-serif" font-size="9.00" fill="#ab47bc">auth, presets</text>
</g>
<!-- dashboard&#45;&gt;llm_node -->
<g id="edge31" class="edge">
<title>dashboard&#45;&gt;llm_node</title>
<path fill="none" stroke="#64b5f6" stroke-width="2" d="M1465.87,-578.42C1450.31,-561.38 1424.89,-535.01 1400,-515.5 1380.08,-499.88 1356.02,-484.95 1336.27,-473.58"/>
<polygon fill="#64b5f6" stroke="#64b5f6" stroke-width="2" points="1337.32,-471.36 1330.02,-470.02 1334.89,-475.62 1337.32,-471.36"/>
<text text-anchor="middle" x="1451.5" y="-528.3" font-family="Inter, Helvetica, Arial, sans-serif" font-size="9.00" fill="#64b5f6">/llm/generate</text>
<text text-anchor="middle" x="1451.5" y="-518.3" font-family="Inter, Helvetica, Arial, sans-serif" font-size="9.00" fill="#64b5f6">(ROS Service)</text>
</g>
<!-- dashboard&#45;&gt;gui -->
<g id="edge30" class="edge">
<title>dashboard&#45;&gt;gui</title>
<path fill="none" stroke="#78909c" stroke-dasharray="5,2" d="M1488.17,-578.31C1494.05,-561.43 1499.92,-535.38 1490,-515.5 1462.18,-459.77 1432.99,-460.51 1378,-431.25 1248.47,-362.31 1076.27,-328.65 991.55,-315.38"/>
<polygon fill="#78909c" stroke="#78909c" points="991.91,-312.95 984.62,-314.3 991.16,-317.79 991.91,-312.95"/>
<text text-anchor="middle" x="1495" y="-454.68" font-family="Inter, Helvetica, Arial, sans-serif" font-size="9.00" fill="#78909c">/tmp JSON files</text>
<text text-anchor="middle" x="1495" y="-444.68" font-family="Inter, Helvetica, Arial, sans-serif" font-size="9.00" fill="#78909c">(commands, login)</text>
</g>
<!-- dashboard&#45;&gt;main_db -->
<g id="edge34" class="edge">
<title>dashboard&#45;&gt;main_db</title>
<path fill="none" stroke="#ab47bc" stroke-dasharray="5,2" d="M1494.2,-578.39C1502.7,-566.77 1513.52,-550.79 1521,-535.5 1533.97,-508.99 1537.27,-501.63 1542,-472.5 1559,-367.73 1517.72,-243.61 1497,-190.21"/>
<polygon fill="#ab47bc" stroke="#ab47bc" points="1499.19,-189.07 1494.34,-183.46 1494.63,-190.87 1499.19,-189.07"/>
<text text-anchor="middle" x="1571.5" y="-376.05" font-family="Inter, Helvetica, Arial, sans-serif" font-size="9.00" fill="#ab47bc">auth, presets</text>
</g>
<!-- dashboard&#45;&gt;user_db -->
<g id="edge35" class="edge">
<title>dashboard&#45;&gt;user_db</title>
<path fill="none" stroke="#ab47bc" stroke-dasharray="5,2" d="M1436.41,-580.63C1403.54,-569.28 1357.96,-552.7 1319,-535.5 1277.04,-516.98 1230.62,-492.55 1198.64,-475.06"/>
<polygon fill="#ab47bc" stroke="#ab47bc" points="1199.75,-472.88 1192.44,-471.66 1197.4,-477.18 1199.75,-472.88"/>
<text text-anchor="middle" x="1355" y="-528.3" font-family="Inter, Helvetica, Arial, sans-serif" font-size="9.00" fill="#ab47bc">read sessions,</text>
<text text-anchor="middle" x="1355" y="-518.3" font-family="Inter, Helvetica, Arial, sans-serif" font-size="9.00" fill="#ab47bc">XP, achievements</text>
</g>
<!-- leg1 -->
<g id="node20" class="node">
<title>leg1</title>
<polygon fill="transparent" stroke="transparent" stroke-width="1.5" points="1866.5,-1060.5 1735.5,-1060.5 1735.5,-1024.5 1866.5,-1024.5 1866.5,-1060.5"/>
<text text-anchor="middle" x="1801" y="-1040.3" font-family="Inter, Helvetica, Arial, sans-serif" font-size="9.00" fill="#8b949e">Orange border = ROS Node</text>
</g>
<!-- leg2 -->
<g id="node21" class="node">
<title>leg2</title>
<polygon fill="transparent" stroke="transparent" stroke-width="1.5" points="1864.5,-898.5 1737.5,-898.5 1737.5,-862.5 1864.5,-862.5 1864.5,-898.5"/>
<text text-anchor="middle" x="1801" y="-878.3" font-family="Inter, Helvetica, Arial, sans-serif" font-size="9.00" fill="#8b949e">Green border = Application</text>
</g>
<!-- leg1&#45;&gt;leg2 -->
<!-- leg3 -->
<g id="node22" class="node">
<title>leg3</title>
<polygon fill="transparent" stroke="transparent" stroke-width="1.5" points="1847,-756.5 1755,-756.5 1755,-720.5 1847,-720.5 1847,-756.5"/>
<text text-anchor="middle" x="1801" y="-736.3" font-family="Inter, Helvetica, Arial, sans-serif" font-size="9.00" fill="#8b949e">Purple = Database</text>
</g>
<!-- leg2&#45;&gt;leg3 -->
<!-- leg4 -->
<g id="node23" class="node">
<title>leg4</title>
<polygon fill="transparent" stroke="transparent" stroke-width="1.5" points="1851.5,-614.5 1750.5,-614.5 1750.5,-578.5 1851.5,-578.5 1851.5,-614.5"/>
<text text-anchor="middle" x="1801" y="-594.3" font-family="Inter, Helvetica, Arial, sans-serif" font-size="9.00" fill="#8b949e">Gray box = Hardware</text>
</g>
<!-- leg3&#45;&gt;leg4 -->
<!-- leg5 -->
<g id="node24" class="node">
<title>leg5</title>
<polygon fill="transparent" stroke="transparent" stroke-width="1.5" points="1868.5,-469.88 1733.5,-469.88 1733.5,-433.88 1868.5,-433.88 1868.5,-469.88"/>
<text text-anchor="middle" x="1801" y="-449.68" font-family="Inter, Helvetica, Arial, sans-serif" font-size="9.00" fill="#8b949e">Solid line = Primary data flow</text>
</g>
<!-- leg4&#45;&gt;leg5 -->
<!-- leg6 -->
<g id="node25" class="node">
<title>leg6</title>
<polygon fill="transparent" stroke="transparent" stroke-width="1.5" points="1878.5,-325.25 1723.5,-325.25 1723.5,-289.25 1878.5,-289.25 1878.5,-325.25"/>
<text text-anchor="middle" x="1801" y="-305.05" font-family="Inter, Helvetica, Arial, sans-serif" font-size="9.00" fill="#8b949e">Dashed line = Secondary / shared</text>
</g>
<!-- leg5&#45;&gt;leg6 -->
</g>
</svg>
