<?xml version="1.0" encoding="UTF-8" standalone="no"?>
<!DOCTYPE svg PUBLIC "-//W3C//DTD SVG 1.1//EN"
 "http://www.w3.org/Graphics/SVG/1.1/DTD/svg11.dtd">
<!-- Generated by graphviz version 2.43.0 (0)
 -->
<!-- Title: SessionStateMachine Pages: 1 -->
<svg width="545pt" height="623pt"
 viewBox="0.00 0.00 544.60 622.60" xmlns="http://www.w3.org/2000/svg" xmlns:xlink="http://www.w3.org/1999/xlink">
<g id="graph0" class="graph" transform="scale(1 1) rotate(0) translate(28.8 593.8)">
<title>SessionStateMachine</title>
<polygon fill="#0b0f14" stroke="transparent" points="-28.8,28.8 -28.8,-593.8 515.8,-593.8 515.8,28.8 -28.8,28.8"/>
<text text-anchor="middle" x="243.5" y="-548.2" font-family="Inter, Helvetica, Arial, sans-serif" font-size="16.00" fill="#e6edf3">Session State Machine</text>
<!-- idle -->
<g id="node1" class="node">
<title>idle</title>
<path fill="#1e2832" stroke="#8b949e" stroke-width="2" d="M417,-539C417,-539 319,-539 319,-539 313,-539 307,-533 307,-527 307,-527 307,-515 307,-515 307,-509 313,-503 319,-503 319,-503 417,-503 417,-503 423,-503 429,-509 429,-515 429,-515 429,-527 429,-527 429,-533 423,-539 417,-539"/>
<text text-anchor="middle" x="368" y="-524.4" font-family="Inter, Helvetica, Arial, sans-serif" font-size="12.00" fill="#e6edf3">IDLE</text>
<text text-anchor="middle" x="368" y="-511.4" font-family="Inter, Helvetica, Arial, sans-serif" font-size="12.00" fill="#e6edf3">(waiting for session)</text>
</g>
<!-- countdown -->
<g id="node2" class="node">
<title>countdown</title>
<path fill="#1e2832" stroke="#ffd54f" stroke-width="2" d="M305.5,-409C305.5,-409 232.5,-409 232.5,-409 226.5,-409 220.5,-403 220.5,-397 220.5,-397 220.5,-385 220.5,-385 220.5,-379 226.5,-373 232.5,-373 232.5,-373 305.5,-373 305.5,-373 311.5,-373 317.5,-379 317.5,-385 317.5,-385 317.5,-397 317.5,-397 317.5,-403 311.5,-409 305.5,-409"/>
<text text-anchor="middle" x="269" y="-394.4" font-family="Inter, Helvetica, Arial, sans-serif" font-size="12.00" fill="#e6edf3">COUNTDOWN</text>
<text text-anchor="middle" x="269" y="-381.4" font-family="Inter, Helvetica, Arial, sans-serif" font-size="12.00" fill="#e6edf3">(3... 2... 1...)</text>
</g>
<!-- idle&#45;&gt;countdown -->
<g id="edge1" class="edge">
<title>idle&#45;&gt;countdown</title>
<path fill="none" stroke="#ffd54f" d="M354.65,-502.74C337.3,-480.31 306.94,-441.05 287.41,-415.81"/>
<polygon fill="#ffd54f" stroke="#ffd54f" points="289.57,-414.01 282.46,-409.4 285.14,-417.44 289.57,-414.01"/>
<text text-anchor="middle" x="353" y="-459" font-family="Inter, Helvetica, Arial, sans-serif" font-size="10.00" fill="#ffd54f">StartSession</text>
<text text-anchor="middle" x="353" y="-448" font-family="Inter, Helvetica, Arial, sans-serif" font-size="10.00" fill="#ffd54f">service call</text>
</g>
<!-- active -->
<g id="node3" class="node">
<title>active</title>
<path fill="#1e2832" stroke="#00e676" stroke-width="2" d="M318.5,-279C318.5,-279 219.5,-279 219.5,-279 213.5,-279 207.5,-273 207.5,-267 207.5,-267 207.5,-255 207.5,-255 207.5,-249 213.5,-243 219.5,-243 219.5,-243 318.5,-243 318.5,-243 324.5,-243 330.5,-249 330.5,-255 330.5,-255 330.5,-267 330.5,-267 330.5,-273 324.5,-279 318.5,-279"/>
<text text-anchor="middle" x="269" y="-264.4" font-family="Inter, Helvetica, Arial, sans-serif" font-size="12.00" fill="#e6edf3">ACTIVE</text>
<text text-anchor="middle" x="269" y="-251.4" font-family="Inter, Helvetica, Arial, sans-serif" font-size="12.00" fill="#e6edf3">(punching / training)</text>
</g>
<!-- countdown&#45;&gt;active -->
<g id="edge2" class="edge">
<title>countdown&#45;&gt;active</title>
<path fill="none" stroke="#00e676" d="M269,-372.74C269,-350.79 269,-312.72 269,-287.44"/>
<polygon fill="#00e676" stroke="#00e676" points="271.8,-287.4 269,-279.4 266.2,-287.4 271.8,-287.4"/>
<text text-anchor="middle" x="296" y="-329" font-family="Inter, Helvetica, Arial, sans-serif" font-size="10.00" fill="#00e676">countdown</text>
<text text-anchor="middle" x="296" y="-318" font-family="Inter, Helvetica, Arial, sans-serif" font-size="10.00" fill="#00e676">finished (3s)</text>
</g>
<!-- rest -->
<g id="node4" class="node">
<title>rest</title>
<path fill="#1e2832" stroke="#42a5f5" stroke-width="2" d="M98,-148C98,-148 12,-148 12,-148 6,-148 0,-142 0,-136 0,-136 0,-124 0,-124 0,-118 6,-112 12,-112 12,-112 98,-112 98,-112 104,-112 110,-118 110,-124 110,-124 110,-136 110,-136 110,-142 104,-148 98,-148"/>
<text text-anchor="middle" x="55" y="-133.4" font-family="Inter, Helvetica, Arial, sans-serif" font-size="12.00" fill="#e6edf3">REST</text>
<text text-anchor="middle" x="55" y="-120.4" font-family="Inter, Helvetica, Arial, sans-serif" font-size="12.00" fill="#e6edf3">(between rounds)</text>
</g>
<!-- active&#45;&gt;rest -->
<g id="edge3" class="edge">
<title>active&#45;&gt;rest</title>
<path fill="none" stroke="#42a5f5" d="M240.1,-242.88C222.67,-232.53 200.03,-219.05 180,-207 149.7,-188.77 115.37,-167.88 90.37,-152.62"/>
<polygon fill="#42a5f5" stroke="#42a5f5" points="91.54,-150.06 83.25,-148.28 88.62,-154.84 91.54,-150.06"/>
<text text-anchor="middle" x="204.5" y="-199" font-family="Inter, Helvetica, Arial, sans-serif" font-size="10.00" fill="#42a5f5">round timer</text>
<text text-anchor="middle" x="204.5" y="-188" font-family="Inter, Helvetica, Arial, sans-serif" font-size="10.00" fill="#42a5f5">expired</text>
</g>
<!-- complete -->
<g id="node5" class="node">
<title>complete</title>
<path fill="#1e2832" stroke="#ff6b35" stroke-width="2" d="M475,-148C475,-148 389,-148 389,-148 383,-148 377,-142 377,-136 377,-136 377,-124 377,-124 377,-118 383,-112 389,-112 389,-112 475,-112 475,-112 481,-112 487,-118 487,-124 487,-124 487,-136 487,-136 487,-142 481,-148 475,-148"/>
<text text-anchor="middle" x="432" y="-133.4" font-family="Inter, Helvetica, Arial, sans-serif" font-size="12.00" fill="#e6edf3">COMPLETE</text>
<text text-anchor="middle" x="432" y="-120.4" font-family="Inter, Helvetica, Arial, sans-serif" font-size="12.00" fill="#e6edf3">(session finished)</text>
</g>
<!-- active&#45;&gt;complete -->
<g id="edge5" class="edge">
<title>active&#45;&gt;complete</title>
<path fill="none" stroke="#ff6b35" d="M310.62,-242.82C329.8,-233.78 352.21,-221.53 370,-207 388.35,-192.01 405.06,-170.87 416.5,-154.69"/>
<polygon fill="#ff6b35" stroke="#ff6b35" points="418.82,-156.26 421.07,-148.09 414.22,-153.07 418.82,-156.26"/>
<text text-anchor="middle" x="414" y="-199" font-family="Inter, Helvetica, Arial, sans-serif" font-size="10.00" fill="#ff6b35">final round</text>
<text text-anchor="middle" x="414" y="-188" font-family="Inter, Helvetica, Arial, sans-serif" font-size="10.00" fill="#ff6b35">completed</text>
</g>
<!-- active&#45;&gt;complete -->
<g id="edge7" class="edge">
<title>active&#45;&gt;complete</title>
<path fill="none" stroke="#ff5252" stroke-dasharray="5,2" d="M272.84,-242.99C277.41,-226.25 286.59,-200.94 303,-185 321.23,-167.29 346.12,-155.04 369.17,-146.74"/>
<polygon fill="#ff5252" stroke="#ff5252" points="370.25,-149.33 376.91,-144.07 368.43,-144.03 370.25,-149.33"/>
<text text-anchor="middle" x="329.5" y="-199" font-family="Inter, Helvetica, Arial, sans-serif" font-size="10.00" fill="#ff5252">EndSession</text>
<text text-anchor="middle" x="329.5" y="-188" font-family="Inter, Helvetica, Arial, sans-serif" font-size="10.00" fill="#ff5252">service call</text>
</g>
<!-- note_active -->
<g id="node6" class="node">
<title>note_active</title>
<polygon fill="#131920" stroke="#2a3040" points="264,-149 176,-149 176,-111 270,-111 270,-143 264,-149"/>
<polyline fill="none" stroke="#2a3040" points="264,-149 264,-143 "/>
<polyline fill="none" stroke="#2a3040" points="270,-143 264,-143 "/>
<text text-anchor="middle" x="223" y="-137.8" font-family="Inter, Helvetica, Arial, sans-serif" font-size="9.00" fill="#8b949e">IMU mode: training</text>
<text text-anchor="middle" x="223" y="-127.8" font-family="Inter, Helvetica, Arial, sans-serif" font-size="9.00" fill="#8b949e">CV: 30fps</text>
<text text-anchor="middle" x="223" y="-117.8" font-family="Inter, Helvetica, Arial, sans-serif" font-size="9.00" fill="#8b949e">Punches counted</text>
</g>
<!-- active&#45;&gt;note_active -->
<g id="edge8" class="edge">
<title>active&#45;&gt;note_active</title>
<path fill="none" stroke="#2a3040" stroke-dasharray="1,5" d="M262.89,-242.87C254.19,-218.47 238.3,-173.92 229.43,-149.03"/>
</g>
<!-- rest&#45;&gt;countdown -->
<g id="edge4" class="edge">
<title>rest&#45;&gt;countdown</title>
<path fill="none" stroke="#ffd54f" d="M62.05,-148.22C74.43,-177.17 102.09,-236.59 137,-279 166.34,-314.63 208.2,-347.6 236.87,-368.19"/>
<polygon fill="#ffd54f" stroke="#ffd54f" points="235.35,-370.55 243.5,-372.9 238.6,-365.98 235.35,-370.55"/>
<text text-anchor="middle" x="158" y="-264" font-family="Inter, Helvetica, Arial, sans-serif" font-size="10.00" fill="#ffd54f">rest timer</text>
<text text-anchor="middle" x="158" y="-253" font-family="Inter, Helvetica, Arial, sans-serif" font-size="10.00" fill="#ffd54f">expired</text>
</g>
<!-- note_rest -->
<g id="node7" class="node">
<title>note_rest</title>
<polygon fill="#131920" stroke="#2a3040" points="104,-38 0,-38 0,0 110,0 110,-32 104,-38"/>
<polyline fill="none" stroke="#2a3040" points="104,-38 104,-32 "/>
<polyline fill="none" stroke="#2a3040" points="110,-32 104,-32 "/>
<text text-anchor="middle" x="55" y="-26.8" font-family="Inter, Helvetica, Arial, sans-serif" font-size="9.00" fill="#8b949e">IMU mode: navigation</text>
<text text-anchor="middle" x="55" y="-16.8" font-family="Inter, Helvetica, Arial, sans-serif" font-size="9.00" fill="#8b949e">CV: idle (reduced load)</text>
<text text-anchor="middle" x="55" y="-6.8" font-family="Inter, Helvetica, Arial, sans-serif" font-size="9.00" fill="#8b949e">Rest timer shown</text>
</g>
<!-- rest&#45;&gt;note_rest -->
<g id="edge9" class="edge">
<title>rest&#45;&gt;note_rest</title>
<path fill="none" stroke="#2a3040" stroke-dasharray="1,5" d="M55,-111.97C55,-91.97 55,-58.93 55,-38.37"/>
</g>
<!-- complete&#45;&gt;idle -->
<g id="edge6" class="edge">
<title>complete&#45;&gt;idle</title>
<path fill="none" stroke="#8b949e" stroke-dasharray="5,2" d="M439.7,-148.11C443.96,-158.54 448.82,-172.26 451,-185 452.65,-194.64 452.02,-197.28 451,-207 438.71,-324.47 436.2,-355.94 396,-467 392.46,-476.79 387.41,-487.01 382.58,-495.84"/>
<polygon fill="#8b949e" stroke="#8b949e" points="380.09,-494.55 378.6,-502.89 384.97,-497.3 380.09,-494.55"/>
<text text-anchor="middle" x="460" y="-329" font-family="Inter, Helvetica, Arial, sans-serif" font-size="10.00" fill="#8b949e">auto&#45;reset</text>
<text text-anchor="middle" x="460" y="-318" font-family="Inter, Helvetica, Arial, sans-serif" font-size="10.00" fill="#8b949e">(3s delay)</text>
</g>
<!-- note_complete -->
<g id="node8" class="node">
<title>note_complete</title>
<polygon fill="#131920" stroke="#2a3040" points="476.5,-38 381.5,-38 381.5,0 482.5,0 482.5,-32 476.5,-38"/>
<polyline fill="none" stroke="#2a3040" points="476.5,-38 476.5,-32 "/>
<polyline fill="none" stroke="#2a3040" points="482.5,-32 476.5,-32 "/>
<text text-anchor="middle" x="432" y="-26.8" font-family="Inter, Helvetica, Arial, sans-serif" font-size="9.00" fill="#8b949e">Summary published</text>
<text text-anchor="middle" x="432" y="-16.8" font-family="Inter, Helvetica, Arial, sans-serif" font-size="9.00" fill="#8b949e">Session saved to DB</text>
<text text-anchor="middle" x="432" y="-6.8" font-family="Inter, Helvetica, Arial, sans-serif" font-size="9.00" fill="#8b949e">Results page shown</text>
</g>
<!-- complete&#45;&gt;note_complete -->
<g id="edge10" class="edge">
<title>complete&#45;&gt;note_complete</title>
<path fill="none" stroke="#2a3040" stroke-dasharray="1,5" d="M432,-111.97C432,-91.97 432,-58.93 432,-38.37"/>
</g>
</g>
</svg>
